<?xml version="1.0" encoding="utf-8" standalone="no"?>
<!DOCTYPE svg PUBLIC "-//W3C//DTD SVG 1.1//EN"
  "http://www.w3.org/Graphics/SVG/1.1/DTD/svg11.dtd">
<svg xmlns:xlink="http://www.w3.org/1999/xlink" width="226.771654pt" height="340.15748pt" viewBox="0 0 226.771654 340.15748" xmlns="http://www.w3.org/2000/svg" version="1.1">
 <metadata>
  <rdf:RDF xmlns:dc="http://purl.org/dc/elements/1.1/" xmlns:cc="http://creativecommons.org/ns#" xmlns:rdf="http://www.w3.org/1999/02/22-rdf-syntax-ns#">
   <cc:Work>
    <dc:type rdf:resource="http://purl.org/dc/dcmitype/StillImage"/>
    <dc:date>2025-03-01T12:45:04.112870</dc:date>
    <dc:format>image/svg+xml</dc:format>
    <dc:creator>
     <cc:Agent>
      <dc:title>Matplotlib v3.8.4, https://matplotlib.org/</dc:title>
     </cc:Agent>
    </dc:creator>
   </cc:Work>
  </rdf:RDF>
 </metadata>
 <defs>
  <style type="text/css">*{stroke-linejoin: round; stroke-linecap: butt}</style>
 </defs>
 <g id="figure_1">
  <g id="patch_1">
   <path d="M 0 340.15748 
L 226.771654 340.15748 
L 226.771654 0 
L 0 0 
z
" style="fill: #ffffff"/>
  </g>
  <g id="axes_1">
   <g id="patch_2">
    <path d="M 34.069647 231.19748 
L 216.246948 231.19748 
L 216.246948 40.114286 
L 34.069647 40.114286 
z
" style="fill: #ffffff"/>
   </g>
   <g id="matplotlib.axis_1">
    <g id="xtick_1">
     <g id="line2d_1">
      <path d="M 34.069647 231.19748 
L 34.069647 40.114286 
" clip-path="url(#p9e9b1909d1)" style="fill: none; stroke: #b0b0b0; stroke-width: 0.8; stroke-linecap: square"/>
     </g>
     <g id="line2d_2">
      <defs>
       <path id="m6e75bba33c" d="M 0 0 
L 0 3.5 
" style="stroke: #000000; stroke-width: 0.8"/>
      </defs>
      <g>
       <use xlink:href="#m6e75bba33c" x="34.069647" y="231.19748" style="stroke: #000000; stroke-width: 0.8"/>
      </g>
     </g>
     <g id="text_1">
      <!-- 0 -->
      <g transform="translate(28.979647 250.35498) scale(0.16 -0.16)">
       <defs>
        <path id="DejaVuSerif-30" d="M 2034 219 
Q 2513 219 2750 744 
Q 2988 1269 2988 2328 
Q 2988 3391 2750 3916 
Q 2513 4441 2034 4441 
Q 1556 4441 1318 3916 
Q 1081 3391 1081 2328 
Q 1081 1269 1318 744 
Q 1556 219 2034 219 
z
M 2034 -91 
Q 1275 -91 848 546 
Q 422 1184 422 2328 
Q 422 3475 848 4112 
Q 1275 4750 2034 4750 
Q 2797 4750 3222 4112 
Q 3647 3475 3647 2328 
Q 3647 1184 3222 546 
Q 2797 -91 2034 -91 
z
" transform="scale(0.015625)"/>
       </defs>
       <use xlink:href="#DejaVuSerif-30"/>
      </g>
     </g>
    </g>
    <g id="xtick_2">
     <g id="line2d_3">
      <path d="M 60.094976 231.19748 
L 60.094976 40.114286 
" clip-path="url(#p9e9b1909d1)" style="fill: none; stroke: #b0b0b0; stroke-width: 0.8; stroke-linecap: square"/>
     </g>
     <g id="line2d_4">
      <g>
       <use xlink:href="#m6e75bba33c" x="60.094976" y="231.19748" style="stroke: #000000; stroke-width: 0.8"/>
      </g>
     </g>
     <g id="text_2">
      <!-- 1 -->
      <g transform="translate(55.004976 250.35498) scale(0.16 -0.16)">
       <defs>
        <path id="DejaVuSerif-31" d="M 909 0 
L 909 331 
L 1722 331 
L 1722 4213 
L 781 3603 
L 781 4013 
L 1919 4750 
L 2350 4750 
L 2350 331 
L 3163 331 
L 3163 0 
L 909 0 
z
" transform="scale(0.015625)"/>
       </defs>
       <use xlink:href="#DejaVuSerif-31"/>
      </g>
     </g>
    </g>
    <g id="xtick_3">
     <g id="line2d_5">
      <path d="M 86.120304 231.19748 
L 86.120304 40.114286 
" clip-path="url(#p9e9b1909d1)" style="fill: none; stroke: #b0b0b0; stroke-width: 0.8; stroke-linecap: square"/>
     </g>
     <g id="line2d_6">
      <g>
       <use xlink:href="#m6e75bba33c" x="86.120304" y="231.19748" style="stroke: #000000; stroke-width: 0.8"/>
      </g>
     </g>
     <g id="text_3">
      <!-- 2 -->
      <g transform="translate(81.030304 250.35498) scale(0.16 -0.16)">
       <defs>
        <path id="DejaVuSerif-32" d="M 819 3553 
L 469 3553 
L 469 4384 
Q 803 4563 1142 4656 
Q 1481 4750 1806 4750 
Q 2534 4750 2956 4397 
Q 3378 4044 3378 3438 
Q 3378 2753 2422 1800 
Q 2347 1728 2309 1691 
L 1131 513 
L 3078 513 
L 3078 1088 
L 3444 1088 
L 3444 0 
L 434 0 
L 434 341 
L 1850 1753 
Q 2319 2222 2519 2614 
Q 2719 3006 2719 3438 
Q 2719 3909 2473 4175 
Q 2228 4441 1797 4441 
Q 1350 4441 1106 4219 
Q 863 3997 819 3553 
z
" transform="scale(0.015625)"/>
       </defs>
       <use xlink:href="#DejaVuSerif-32"/>
      </g>
     </g>
    </g>
    <g id="xtick_4">
     <g id="line2d_7">
      <path d="M 112.145633 231.19748 
L 112.145633 40.114286 
" clip-path="url(#p9e9b1909d1)" style="fill: none; stroke: #b0b0b0; stroke-width: 0.8; stroke-linecap: square"/>
     </g>
     <g id="line2d_8">
      <g>
       <use xlink:href="#m6e75bba33c" x="112.145633" y="231.19748" style="stroke: #000000; stroke-width: 0.8"/>
      </g>
     </g>
     <g id="text_4">
      <!-- 3 -->
      <g transform="translate(107.055633 250.35498) scale(0.16 -0.16)">
       <defs>
        <path id="DejaVuSerif-33" d="M 622 4469 
Q 988 4606 1323 4678 
Q 1659 4750 1953 4750 
Q 2638 4750 3022 4454 
Q 3406 4159 3406 3634 
Q 3406 3213 3140 2930 
Q 2875 2647 2388 2547 
Q 2963 2466 3280 2130 
Q 3597 1794 3597 1259 
Q 3597 606 3158 257 
Q 2719 -91 1894 -91 
Q 1528 -91 1179 -12 
Q 831 66 488 225 
L 488 1131 
L 838 1131 
Q 869 681 1141 450 
Q 1413 219 1906 219 
Q 2384 219 2661 495 
Q 2938 772 2938 1253 
Q 2938 1803 2653 2086 
Q 2369 2369 1819 2369 
L 1522 2369 
L 1522 2688 
L 1678 2688 
Q 2225 2688 2498 2914 
Q 2772 3141 2772 3597 
Q 2772 4006 2547 4223 
Q 2322 4441 1900 4441 
Q 1478 4441 1245 4241 
Q 1013 4041 972 3647 
L 622 3647 
L 622 4469 
z
" transform="scale(0.015625)"/>
       </defs>
       <use xlink:href="#DejaVuSerif-33"/>
      </g>
     </g>
    </g>
    <g id="xtick_5">
     <g id="line2d_9">
      <path d="M 138.170962 231.19748 
L 138.170962 40.114286 
" clip-path="url(#p9e9b1909d1)" style="fill: none; stroke: #b0b0b0; stroke-width: 0.8; stroke-linecap: square"/>
     </g>
     <g id="line2d_10">
      <g>
       <use xlink:href="#m6e75bba33c" x="138.170962" y="231.19748" style="stroke: #000000; stroke-width: 0.8"/>
      </g>
     </g>
     <g id="text_5">
      <!-- 4 -->
      <g transform="translate(133.080962 250.35498) scale(0.16 -0.16)">
       <defs>
        <path id="DejaVuSerif-34" d="M 2234 1581 
L 2234 4063 
L 641 1581 
L 2234 1581 
z
M 3609 0 
L 1484 0 
L 1484 331 
L 2234 331 
L 2234 1247 
L 197 1247 
L 197 1588 
L 2241 4750 
L 2859 4750 
L 2859 1581 
L 3750 1581 
L 3750 1247 
L 2859 1247 
L 2859 331 
L 3609 331 
L 3609 0 
z
" transform="scale(0.015625)"/>
       </defs>
       <use xlink:href="#DejaVuSerif-34"/>
      </g>
     </g>
    </g>
    <g id="xtick_6">
     <g id="line2d_11">
      <path d="M 164.19629 231.19748 
L 164.19629 40.114286 
" clip-path="url(#p9e9b1909d1)" style="fill: none; stroke: #b0b0b0; stroke-width: 0.8; stroke-linecap: square"/>
     </g>
     <g id="line2d_12">
      <g>
       <use xlink:href="#m6e75bba33c" x="164.19629" y="231.19748" style="stroke: #000000; stroke-width: 0.8"/>
      </g>
     </g>
     <g id="text_6">
      <!-- 5 -->
      <g transform="translate(159.10629 250.35498) scale(0.16 -0.16)">
       <defs>
        <path id="DejaVuSerif-35" d="M 3219 4666 
L 3219 4153 
L 1081 4153 
L 1081 2816 
Q 1244 2928 1461 2984 
Q 1678 3041 1947 3041 
Q 2703 3041 3140 2622 
Q 3578 2203 3578 1478 
Q 3578 738 3136 323 
Q 2694 -91 1894 -91 
Q 1572 -91 1234 -12 
Q 897 66 544 225 
L 544 1131 
L 897 1131 
Q 925 688 1179 453 
Q 1434 219 1894 219 
Q 2388 219 2653 544 
Q 2919 869 2919 1478 
Q 2919 2084 2655 2407 
Q 2391 2731 1894 2731 
Q 1613 2731 1398 2631 
Q 1184 2531 1019 2322 
L 750 2322 
L 750 4666 
L 3219 4666 
z
" transform="scale(0.015625)"/>
       </defs>
       <use xlink:href="#DejaVuSerif-35"/>
      </g>
     </g>
    </g>
    <g id="xtick_7">
     <g id="line2d_13">
      <path d="M 190.221619 231.19748 
L 190.221619 40.114286 
" clip-path="url(#p9e9b1909d1)" style="fill: none; stroke: #b0b0b0; stroke-width: 0.8; stroke-linecap: square"/>
     </g>
     <g id="line2d_14">
      <g>
       <use xlink:href="#m6e75bba33c" x="190.221619" y="231.19748" style="stroke: #000000; stroke-width: 0.8"/>
      </g>
     </g>
     <g id="text_7">
      <!-- 6 -->
      <g transform="translate(185.131619 250.35498) scale(0.16 -0.16)">
       <defs>
        <path id="DejaVuSerif-36" d="M 2094 219 
Q 2534 219 2771 542 
Q 3009 866 3009 1472 
Q 3009 2078 2771 2401 
Q 2534 2725 2094 2725 
Q 1647 2725 1412 2412 
Q 1178 2100 1178 1509 
Q 1178 888 1415 553 
Q 1653 219 2094 219 
z
M 1075 2569 
Q 1288 2803 1556 2918 
Q 1825 3034 2163 3034 
Q 2859 3034 3264 2615 
Q 3669 2197 3669 1472 
Q 3669 763 3233 336 
Q 2797 -91 2069 -91 
Q 1278 -91 853 498 
Q 428 1088 428 2181 
Q 428 3406 931 4078 
Q 1434 4750 2350 4750 
Q 2597 4750 2869 4703 
Q 3141 4656 3425 4563 
L 3425 3794 
L 3072 3794 
Q 3034 4109 2831 4275 
Q 2628 4441 2284 4441 
Q 1678 4441 1381 3981 
Q 1084 3522 1075 2569 
z
" transform="scale(0.015625)"/>
       </defs>
       <use xlink:href="#DejaVuSerif-36"/>
      </g>
     </g>
    </g>
    <g id="xtick_8">
     <g id="line2d_15">
      <path d="M 216.246948 231.19748 
L 216.246948 40.114286 
" clip-path="url(#p9e9b1909d1)" style="fill: none; stroke: #b0b0b0; stroke-width: 0.8; stroke-linecap: square"/>
     </g>
     <g id="line2d_16">
      <g>
       <use xlink:href="#m6e75bba33c" x="216.246948" y="231.19748" style="stroke: #000000; stroke-width: 0.8"/>
      </g>
     </g>
     <g id="text_8">
      <!-- 7 -->
      <g transform="translate(211.156948 250.35498) scale(0.16 -0.16)">
       <defs>
        <path id="DejaVuSerif-37" d="M 3609 4347 
L 1784 0 
L 1319 0 
L 3059 4153 
L 903 4153 
L 903 3578 
L 538 3578 
L 538 4666 
L 3609 4666 
L 3609 4347 
z
" transform="scale(0.015625)"/>
       </defs>
       <use xlink:href="#DejaVuSerif-37"/>
      </g>
     </g>
    </g>
    <g id="text_9">
     <!-- $\langle{n| x|n \rangle}/l_B$ -->
     <g transform="translate(89.638297 270.00248) scale(0.16 -0.16)">
      <defs>
       <path id="DejaVuSans-27e8" d="M 572 2006 
L 1453 4856 
L 1984 4856 
L 1103 2006 
L 1984 -844 
L 1453 -844 
L 572 2006 
z
" transform="scale(0.015625)"/>
       <path id="DejaVuSans-Oblique-6e" d="M 3566 2113 
L 3156 0 
L 2578 0 
L 2988 2091 
Q 3016 2238 3031 2350 
Q 3047 2463 3047 2528 
Q 3047 2791 2881 2937 
Q 2716 3084 2419 3084 
Q 1956 3084 1622 2776 
Q 1288 2469 1184 1941 
L 800 0 
L 225 0 
L 903 3500 
L 1478 3500 
L 1363 2950 
Q 1603 3253 1940 3418 
Q 2278 3584 2650 3584 
Q 3113 3584 3367 3334 
Q 3622 3084 3622 2631 
Q 3622 2519 3608 2391 
Q 3594 2263 3566 2113 
z
" transform="scale(0.015625)"/>
       <path id="DejaVuSans-7c" d="M 1344 4891 
L 1344 -1509 
L 813 -1509 
L 813 4891 
L 1344 4891 
z
" transform="scale(0.015625)"/>
       <path id="DejaVuSans-Oblique-78" d="M 3841 3500 
L 2234 1784 
L 3219 0 
L 2559 0 
L 1819 1388 
L 531 0 
L -166 0 
L 1556 1844 
L 641 3500 
L 1300 3500 
L 1972 2234 
L 3144 3500 
L 3841 3500 
z
" transform="scale(0.015625)"/>
       <path id="DejaVuSans-27e9" d="M 1925 2006 
L 1044 -844 
L 513 -844 
L 1394 2006 
L 513 4856 
L 1044 4856 
L 1925 2006 
z
" transform="scale(0.015625)"/>
       <path id="DejaVuSans-2f" d="M 1625 4666 
L 2156 4666 
L 531 -594 
L 0 -594 
L 1625 4666 
z
" transform="scale(0.015625)"/>
       <path id="DejaVuSans-Oblique-6c" d="M 1172 4863 
L 1747 4863 
L 800 0 
L 225 0 
L 1172 4863 
z
" transform="scale(0.015625)"/>
       <path id="DejaVuSans-Oblique-42" d="M 1081 4666 
L 2694 4666 
Q 3350 4666 3675 4422 
Q 4000 4178 4000 3688 
Q 4000 3238 3720 2911 
Q 3441 2584 2988 2516 
Q 3375 2428 3569 2181 
Q 3763 1934 3763 1522 
Q 3763 819 3242 409 
Q 2722 0 1819 0 
L 172 0 
L 1081 4666 
z
M 1234 2228 
L 903 519 
L 1919 519 
Q 2491 519 2800 781 
Q 3109 1044 3109 1522 
Q 3109 1891 2904 2059 
Q 2700 2228 2247 2228 
L 1234 2228 
z
M 1606 4147 
L 1331 2741 
L 2272 2741 
Q 2775 2741 3058 2959 
Q 3341 3178 3341 3566 
Q 3341 3869 3150 4008 
Q 2959 4147 2541 4147 
L 1606 4147 
z
" transform="scale(0.015625)"/>
      </defs>
      <use xlink:href="#DejaVuSans-27e8" transform="translate(0 0.578125)"/>
      <use xlink:href="#DejaVuSans-Oblique-6e" transform="translate(39.013672 0.578125)"/>
      <use xlink:href="#DejaVuSans-7c" transform="translate(102.392578 0.578125)"/>
      <use xlink:href="#DejaVuSans-Oblique-78" transform="translate(136.083984 0.578125)"/>
      <use xlink:href="#DejaVuSans-7c" transform="translate(195.263672 0.578125)"/>
      <use xlink:href="#DejaVuSans-Oblique-6e" transform="translate(228.955078 0.578125)"/>
      <use xlink:href="#DejaVuSans-27e9" transform="translate(292.333984 0.578125)"/>
      <use xlink:href="#DejaVuSans-2f" transform="translate(331.347656 0.578125)"/>
      <use xlink:href="#DejaVuSans-Oblique-6c" transform="translate(365.039062 0.578125)"/>
      <use xlink:href="#DejaVuSans-Oblique-42" transform="translate(392.822266 -15.828125) scale(0.7)"/>
     </g>
    </g>
   </g>
   <g id="matplotlib.axis_2">
    <g id="ytick_1">
     <g id="line2d_17">
      <path d="M 34.069647 231.19748 
L 216.246948 231.19748 
" clip-path="url(#p9e9b1909d1)" style="fill: none; stroke: #b0b0b0; stroke-width: 0.8; stroke-linecap: square"/>
     </g>
     <g id="line2d_18">
      <defs>
       <path id="mb8338bf583" d="M 0 0 
L -3.5 0 
" style="stroke: #000000; stroke-width: 0.8"/>
      </defs>
      <g>
       <use xlink:href="#mb8338bf583" x="34.069647" y="231.19748" style="stroke: #000000; stroke-width: 0.8"/>
      </g>
     </g>
     <g id="text_10">
      <!-- 0.0 -->
      <g transform="translate(1.624647 237.27623) scale(0.16 -0.16)">
       <defs>
        <path id="DejaVuSerif-2e" d="M 603 325 
Q 603 500 722 622 
Q 841 744 1019 744 
Q 1191 744 1312 622 
Q 1434 500 1434 325 
Q 1434 153 1312 31 
Q 1191 -91 1019 -91 
Q 841 -91 722 29 
Q 603 150 603 325 
z
" transform="scale(0.015625)"/>
       </defs>
       <use xlink:href="#DejaVuSerif-30"/>
       <use xlink:href="#DejaVuSerif-2e" x="63.623047"/>
       <use xlink:href="#DejaVuSerif-30" x="95.410156"/>
      </g>
     </g>
    </g>
    <g id="ytick_2">
     <g id="line2d_19">
      <path d="M 34.069647 183.426682 
L 216.246948 183.426682 
" clip-path="url(#p9e9b1909d1)" style="fill: none; stroke: #b0b0b0; stroke-width: 0.8; stroke-linecap: square"/>
     </g>
     <g id="line2d_20">
      <g>
       <use xlink:href="#mb8338bf583" x="34.069647" y="183.426682" style="stroke: #000000; stroke-width: 0.8"/>
      </g>
     </g>
     <g id="text_11">
      <!-- 0.2 -->
      <g transform="translate(1.624647 189.505432) scale(0.16 -0.16)">
       <use xlink:href="#DejaVuSerif-30"/>
       <use xlink:href="#DejaVuSerif-2e" x="63.623047"/>
       <use xlink:href="#DejaVuSerif-32" x="95.410156"/>
      </g>
     </g>
    </g>
    <g id="ytick_3">
     <g id="line2d_21">
      <path d="M 34.069647 135.655883 
L 216.246948 135.655883 
" clip-path="url(#p9e9b1909d1)" style="fill: none; stroke: #b0b0b0; stroke-width: 0.8; stroke-linecap: square"/>
     </g>
     <g id="line2d_22">
      <g>
       <use xlink:href="#mb8338bf583" x="34.069647" y="135.655883" style="stroke: #000000; stroke-width: 0.8"/>
      </g>
     </g>
     <g id="text_12">
      <!-- 0.4 -->
      <g transform="translate(1.624647 141.734633) scale(0.16 -0.16)">
       <use xlink:href="#DejaVuSerif-30"/>
       <use xlink:href="#DejaVuSerif-2e" x="63.623047"/>
       <use xlink:href="#DejaVuSerif-34" x="95.410156"/>
      </g>
     </g>
    </g>
    <g id="ytick_4">
     <g id="line2d_23">
      <path d="M 34.069647 87.885084 
L 216.246948 87.885084 
" clip-path="url(#p9e9b1909d1)" style="fill: none; stroke: #b0b0b0; stroke-width: 0.8; stroke-linecap: square"/>
     </g>
     <g id="line2d_24">
      <g>
       <use xlink:href="#mb8338bf583" x="34.069647" y="87.885084" style="stroke: #000000; stroke-width: 0.8"/>
      </g>
     </g>
     <g id="text_13">
      <!-- 0.6 -->
      <g transform="translate(1.624647 93.963834) scale(0.16 -0.16)">
       <use xlink:href="#DejaVuSerif-30"/>
       <use xlink:href="#DejaVuSerif-2e" x="63.623047"/>
       <use xlink:href="#DejaVuSerif-36" x="95.410156"/>
      </g>
     </g>
    </g>
    <g id="ytick_5">
     <g id="line2d_25">
      <path d="M 34.069647 40.114286 
L 216.246948 40.114286 
" clip-path="url(#p9e9b1909d1)" style="fill: none; stroke: #b0b0b0; stroke-width: 0.8; stroke-linecap: square"/>
     </g>
     <g id="line2d_26">
      <g>
       <use xlink:href="#mb8338bf583" x="34.069647" y="40.114286" style="stroke: #000000; stroke-width: 0.8"/>
      </g>
     </g>
     <g id="text_14">
      <!-- 0.8 -->
      <g transform="translate(1.624647 46.193036) scale(0.16 -0.16)">
       <defs>
        <path id="DejaVuSerif-38" d="M 2981 1275 
Q 2981 1775 2732 2051 
Q 2484 2328 2034 2328 
Q 1584 2328 1336 2051 
Q 1088 1775 1088 1275 
Q 1088 772 1336 495 
Q 1584 219 2034 219 
Q 2484 219 2732 495 
Q 2981 772 2981 1275 
z
M 2853 3541 
Q 2853 3966 2637 4203 
Q 2422 4441 2034 4441 
Q 1650 4441 1433 4203 
Q 1216 3966 1216 3541 
Q 1216 3113 1433 2875 
Q 1650 2638 2034 2638 
Q 2422 2638 2637 2875 
Q 2853 3113 2853 3541 
z
M 2516 2484 
Q 3047 2413 3344 2092 
Q 3641 1772 3641 1275 
Q 3641 619 3225 264 
Q 2809 -91 2034 -91 
Q 1263 -91 845 264 
Q 428 619 428 1275 
Q 428 1772 725 2092 
Q 1022 2413 1556 2484 
Q 1084 2569 832 2842 
Q 581 3116 581 3541 
Q 581 4103 968 4426 
Q 1356 4750 2034 4750 
Q 2713 4750 3100 4426 
Q 3488 4103 3488 3541 
Q 3488 3116 3236 2842 
Q 2984 2569 2516 2484 
z
" transform="scale(0.015625)"/>
       </defs>
       <use xlink:href="#DejaVuSerif-30"/>
       <use xlink:href="#DejaVuSerif-2e" x="63.623047"/>
       <use xlink:href="#DejaVuSerif-38" x="95.410156"/>
      </g>
     </g>
    </g>
    <g id="text_15">
     <!-- $E_n/(\hbar\omega_B)$ -->
     <g transform="translate(-5.702853 169.735883) rotate(-90) scale(0.16 -0.16)">
      <defs>
       <path id="DejaVuSans-Oblique-45" d="M 1081 4666 
L 4031 4666 
L 3928 4134 
L 1606 4134 
L 1338 2753 
L 3566 2753 
L 3463 2222 
L 1234 2222 
L 909 531 
L 3284 531 
L 3181 0 
L 172 0 
L 1081 4666 
z
" transform="scale(0.015625)"/>
       <path id="DejaVuSans-28" d="M 1984 4856 
Q 1566 4138 1362 3434 
Q 1159 2731 1159 2009 
Q 1159 1288 1364 580 
Q 1569 -128 1984 -844 
L 1484 -844 
Q 1016 -109 783 600 
Q 550 1309 550 2009 
Q 550 2706 781 3412 
Q 1013 4119 1484 4856 
L 1984 4856 
z
" transform="scale(0.015625)"/>
       <path id="DejaVuSans-Oblique-127" d="M 3634 2113 
L 3225 0 
L 2650 0 
L 3056 2094 
Q 3094 2291 3094 2450 
Q 3094 2688 3006 2838 
Q 2863 3084 2475 3084 
Q 2009 3084 1681 2788 
Q 1356 2491 1256 1978 
L 872 0 
L 294 0 
L 1066 3969 
L 675 3969 
L 775 4481 
L 1166 4481 
L 1238 4863 
L 1816 4863 
L 1744 4481 
L 2844 4481 
L 2744 3969 
L 1644 3969 
L 1447 2956 
Q 1713 3272 2025 3428 
Q 2331 3584 2700 3584 
Q 3300 3584 3538 3213 
Q 3688 2975 3688 2606 
Q 3688 2381 3634 2113 
z
" transform="scale(0.015625)"/>
       <path id="DejaVuSans-Oblique-3c9" d="M 1369 -91 
Q 72 -91 434 1766 
Q 575 2500 1256 3500 
L 1875 3500 
Q 1231 2500 1088 1750 
Q 819 397 1519 397 
Q 2166 397 2478 2078 
L 3009 2078 
Q 2669 388 3316 397 
Q 4013 403 4275 1750 
Q 4419 2500 4169 3500 
L 4788 3500 
Q 5075 2500 4934 1766 
Q 4578 -94 3278 -91 
Q 2428 -88 2503 844 
Q 2194 -91 1369 -91 
z
" transform="scale(0.015625)"/>
       <path id="DejaVuSans-29" d="M 513 4856 
L 1013 4856 
Q 1481 4119 1714 3412 
Q 1947 2706 1947 2009 
Q 1947 1309 1714 600 
Q 1481 -109 1013 -844 
L 513 -844 
Q 928 -128 1133 580 
Q 1338 1288 1338 2009 
Q 1338 2731 1133 3434 
Q 928 4138 513 4856 
z
" transform="scale(0.015625)"/>
      </defs>
      <use xlink:href="#DejaVuSans-Oblique-45" transform="translate(0 0.015625)"/>
      <use xlink:href="#DejaVuSans-Oblique-6e" transform="translate(63.183594 -16.390625) scale(0.7)"/>
      <use xlink:href="#DejaVuSans-2f" transform="translate(110.283203 0.015625)"/>
      <use xlink:href="#DejaVuSans-28" transform="translate(143.974609 0.015625)"/>
      <use xlink:href="#DejaVuSans-Oblique-127" transform="translate(182.988281 0.015625)"/>
      <use xlink:href="#DejaVuSans-Oblique-3c9" transform="translate(252.470703 0.015625)"/>
      <use xlink:href="#DejaVuSans-Oblique-42" transform="translate(336.210938 -16.390625) scale(0.7)"/>
      <use xlink:href="#DejaVuSans-29" transform="translate(386.967773 0.015625)"/>
     </g>
    </g>
   </g>
   <g id="line2d_27">
    <defs>
     <path id="maa46e63b0e" d="M 0 2.5 
C 0.663008 2.5 1.29895 2.236584 1.767767 1.767767 
C 2.236584 1.29895 2.5 0.663008 2.5 0 
C 2.5 -0.663008 2.236584 -1.29895 1.767767 -1.767767 
C 1.29895 -2.236584 0.663008 -2.5 0 -2.5 
C -0.663008 -2.5 -1.29895 -2.236584 -1.767767 -1.767767 
C -2.236584 -1.29895 -2.5 -0.663008 -2.5 0 
C -2.5 0.663008 -2.236584 1.29895 -1.767767 1.767767 
C -1.29895 2.236584 -0.663008 2.5 0 2.5 
z
" style="stroke: #0000ff"/>
    </defs>
    <g clip-path="url(#p9e9b1909d1)">
     <use xlink:href="#maa46e63b0e" x="143.704122" y="231.19748" style="fill: #0000ff; stroke: #0000ff"/>
     <use xlink:href="#maa46e63b0e" x="136.745585" y="229.136233" style="fill: #0000ff; stroke: #0000ff"/>
     <use xlink:href="#maa46e63b0e" x="150.374515" y="228.760635" style="fill: #0000ff; stroke: #0000ff"/>
     <use xlink:href="#maa46e63b0e" x="129.517739" y="223.4071" style="fill: #0000ff; stroke: #0000ff"/>
     <use xlink:href="#maa46e63b0e" x="156.745103" y="220.950345" style="fill: #0000ff; stroke: #0000ff"/>
     <use xlink:href="#maa46e63b0e" x="122.046156" y="214.773345" style="fill: #0000ff; stroke: #0000ff"/>
     <use xlink:href="#maa46e63b0e" x="162.811007" y="206.868802" style="fill: #0000ff; stroke: #0000ff"/>
     <use xlink:href="#maa46e63b0e" x="114.361816" y="203.912797" style="fill: #0000ff; stroke: #0000ff"/>
     <use xlink:href="#maa46e63b0e" x="106.498998" y="191.404961" style="fill: #0000ff; stroke: #0000ff"/>
     <use xlink:href="#maa46e63b0e" x="168.573156" y="185.617342" style="fill: #0000ff; stroke: #0000ff"/>
     <use xlink:href="#maa46e63b0e" x="98.492764" y="177.725283" style="fill: #0000ff; stroke: #0000ff"/>
     <use xlink:href="#maa46e63b0e" x="90.376485" y="163.246964" style="fill: #0000ff; stroke: #0000ff"/>
     <use xlink:href="#maa46e63b0e" x="174.037008" y="156.315662" style="fill: #0000ff; stroke: #0000ff"/>
     <use xlink:href="#maa46e63b0e" x="82.179846" y="148.249385" style="fill: #0000ff; stroke: #0000ff"/>
     <use xlink:href="#maa46e63b0e" x="73.927582" y="132.931304" style="fill: #0000ff; stroke: #0000ff"/>
     <use xlink:href="#maa46e63b0e" x="179.211225" y="118.118111" style="fill: #0000ff; stroke: #0000ff"/>
     <use xlink:href="#maa46e63b0e" x="65.639008" y="117.426491" style="fill: #0000ff; stroke: #0000ff"/>
     <use xlink:href="#maa46e63b0e" x="57.328258" y="101.819586" style="fill: #0000ff; stroke: #0000ff"/>
     <use xlink:href="#maa46e63b0e" x="49.005045" y="86.160401" style="fill: #0000ff; stroke: #0000ff"/>
     <use xlink:href="#maa46e63b0e" x="40.675762" y="70.475396" style="fill: #0000ff; stroke: #0000ff"/>
     <use xlink:href="#maa46e63b0e" x="184.10646" y="70.227033" style="fill: #0000ff; stroke: #0000ff"/>
     <use xlink:href="#maa46e63b0e" x="32.344772" y="54.775579" style="fill: #0000ff; stroke: #0000ff"/>
     <use xlink:href="#maa46e63b0e" x="24.015799" y="39.060438" style="fill: #0000ff; stroke: #0000ff"/>
     <use xlink:href="#maa46e63b0e" x="15.69333" y="23.317727" style="fill: #0000ff; stroke: #0000ff"/>
     <use xlink:href="#maa46e63b0e" x="188.734339" y="11.903548" style="fill: #0000ff; stroke: #0000ff"/>
     <use xlink:href="#maa46e63b0e" x="7.383998" y="7.519138" style="fill: #0000ff; stroke: #0000ff"/>
     <use xlink:href="#maa46e63b0e" x="2.946324" y="-1" style="fill: #0000ff; stroke: #0000ff"/>
    </g>
   </g>
   <g id="line2d_28">
    <path d="M 7.016059 -1 
L 77.039013 130.823383 
L 91.626187 157.895286 
L 98.919774 171.099717 
L 106.213361 183.87974 
L 113.506948 195.99935 
L 120.800534 207.13537 
L 128.094121 216.858212 
L 135.387708 224.6107 
L 142.681295 229.684975 
L 149.974882 231.19748 
L 157.268469 228.062011 
L 164.562056 218.960847 
L 171.855643 202.313961 
L 179.14923 176.246297 
L 186.442817 138.553128 
L 193.736404 86.66349 
L 201.029991 17.601688 
L 202.543273 -1 
M 7.016059 -1 
L 77.039013 130.823383 
L 91.626187 157.895286 
L 98.919774 171.099717 
L 106.213361 183.87974 
L 113.506948 195.99935 
L 120.800534 207.13537 
L 128.094121 216.858212 
L 135.387708 224.6107 
L 142.681295 229.684975 
L 149.974882 231.19748 
L 157.268469 228.062011 
L 164.562056 218.960847 
L 171.855643 202.313961 
L 179.14923 176.246297 
L 186.442817 138.553128 
L 193.736404 86.66349 
L 201.029991 17.601688 
L 202.543273 -1 
M 7.016059 -1 
L 77.039013 130.823383 
L 91.626187 157.895286 
L 98.919774 171.099717 
L 106.213361 183.87974 
L 113.506948 195.99935 
L 120.800534 207.13537 
L 128.094121 216.858212 
L 135.387708 224.6107 
L 142.681295 229.684975 
L 149.974882 231.19748 
L 157.268469 228.062011 
L 164.562056 218.960847 
L 171.855643 202.313961 
L 179.14923 176.246297 
L 186.442817 138.553128 
L 193.736404 86.66349 
L 201.029991 17.601688 
L 202.543273 -1 
M 7.016059 -1 
L 77.039013 130.823383 
L 91.626187 157.895286 
L 98.919774 171.099717 
L 106.213361 183.87974 
L 113.506948 195.99935 
L 120.800534 207.13537 
L 128.094121 216.858212 
L 135.387708 224.6107 
L 142.681295 229.684975 
L 149.974882 231.19748 
L 157.268469 228.062011 
L 164.562056 218.960847 
L 171.855643 202.313961 
L 179.14923 176.246297 
L 186.442817 138.553128 
L 193.736404 86.66349 
L 201.029991 17.601688 
L 202.543273 -1 
M 7.016059 -1 
L 77.039013 130.823383 
L 91.626187 157.895286 
L 98.919774 171.099717 
L 106.213361 183.87974 
L 113.506948 195.99935 
L 120.800534 207.13537 
L 128.094121 216.858212 
L 135.387708 224.6107 
L 142.681295 229.684975 
L 149.974882 231.19748 
L 157.268469 228.062011 
L 164.562056 218.960847 
L 171.855643 202.313961 
L 179.14923 176.246297 
L 186.442817 138.553128 
L 193.736404 86.66349 
L 201.029991 17.601688 
L 202.543273 -1 
M 7.016059 -1 
L 77.039013 130.823383 
L 91.626187 157.895286 
L 98.919774 171.099717 
L 106.213361 183.87974 
L 113.506948 195.99935 
L 120.800534 207.13537 
L 128.094121 216.858212 
L 135.387708 224.6107 
L 142.681295 229.684975 
L 149.974882 231.19748 
L 157.268469 228.062011 
L 164.562056 218.960847 
L 171.855643 202.313961 
L 179.14923 176.246297 
L 186.442817 138.553128 
L 193.736404 86.66349 
L 201.029991 17.601688 
L 202.543273 -1 
M 7.016059 -1 
L 77.039013 130.823383 
L 91.626187 157.895286 
L 98.919774 171.099717 
L 106.213361 183.87974 
L 113.506948 195.99935 
L 120.800534 207.13537 
L 128.094121 216.858212 
L 135.387708 224.6107 
L 142.681295 229.684975 
L 149.974882 231.19748 
L 157.268469 228.062011 
L 164.562056 218.960847 
L 171.855643 202.313961 
L 179.14923 176.246297 
L 186.442817 138.553128 
L 193.736404 86.66349 
L 201.029991 17.601688 
L 202.543273 -1 
M 7.016059 -1 
L 77.039013 130.823383 
L 91.626187 157.895286 
L 98.919774 171.099717 
L 106.213361 183.87974 
L 113.506948 195.99935 
L 120.800534 207.13537 
L 128.094121 216.858212 
L 135.387708 224.6107 
L 142.681295 229.684975 
L 149.974882 231.19748 
L 157.268469 228.062011 
L 164.562056 218.960847 
L 171.855643 202.313961 
L 179.14923 176.246297 
L 186.442817 138.553128 
L 193.736404 86.66349 
L 201.029991 17.601688 
L 202.543273 -1 
M 7.016059 -1 
L 77.039013 130.823383 
L 91.626187 157.895286 
L 98.919774 171.099717 
L 106.213361 183.87974 
L 113.506948 195.99935 
L 120.800534 207.13537 
L 128.094121 216.858212 
L 135.387708 224.6107 
L 142.681295 229.684975 
L 149.974882 231.19748 
L 157.268469 228.062011 
L 164.562056 218.960847 
L 171.855643 202.313961 
L 179.14923 176.246297 
L 186.442817 138.553128 
L 193.736404 86.66349 
L 201.029991 17.601688 
L 202.543273 -1 
M 7.016059 -1 
L 77.039013 130.823383 
L 91.626187 157.895286 
L 98.919774 171.099717 
L 106.213361 183.87974 
L 113.506948 195.99935 
L 120.800534 207.13537 
L 128.094121 216.858212 
L 135.387708 224.6107 
L 142.681295 229.684975 
L 149.974882 231.19748 
L 157.268469 228.062011 
L 164.562056 218.960847 
L 171.855643 202.313961 
L 179.14923 176.246297 
L 186.442817 138.553128 
L 193.736404 86.66349 
L 201.029991 17.601688 
L 202.543273 -1 
M 7.016059 -1 
L 77.039013 130.823383 
L 91.626187 157.895286 
L 98.919774 171.099717 
L 106.213361 183.87974 
L 113.506948 195.99935 
L 120.800534 207.13537 
L 128.094121 216.858212 
L 135.387708 224.6107 
L 142.681295 229.684975 
L 149.974882 231.19748 
L 157.268469 228.062011 
L 164.562056 218.960847 
L 171.855643 202.313961 
L 179.14923 176.246297 
L 186.442817 138.553128 
L 193.736404 86.66349 
L 201.029991 17.601688 
L 202.543273 -1 
M 7.016059 -1 
L 77.039013 130.823383 
L 91.626187 157.895286 
L 98.919774 171.099717 
L 106.213361 183.87974 
L 113.506948 195.99935 
L 120.800534 207.13537 
L 128.094121 216.858212 
L 135.387708 224.6107 
L 142.681295 229.684975 
L 149.974882 231.19748 
L 157.268469 228.062011 
L 164.562056 218.960847 
L 171.855643 202.313961 
L 179.14923 176.246297 
L 186.442817 138.553128 
L 193.736404 86.66349 
L 201.029991 17.601688 
L 202.543273 -1 
M 7.016059 -1 
L 77.039013 130.823383 
L 91.626187 157.895286 
L 98.919774 171.099717 
L 106.213361 183.87974 
L 113.506948 195.99935 
L 120.800534 207.13537 
L 128.094121 216.858212 
L 135.387708 224.6107 
L 142.681295 229.684975 
L 149.974882 231.19748 
L 157.268469 228.062011 
L 164.562056 218.960847 
L 171.855643 202.313961 
L 179.14923 176.246297 
L 186.442817 138.553128 
L 193.736404 86.66349 
L 201.029991 17.601688 
L 202.543273 -1 
M 7.016059 -1 
L 77.039013 130.823383 
L 91.626187 157.895286 
L 98.919774 171.099717 
L 106.213361 183.87974 
L 113.506948 195.99935 
L 120.800534 207.13537 
L 128.094121 216.858212 
L 135.387708 224.6107 
L 142.681295 229.684975 
L 149.974882 231.19748 
L 157.268469 228.062011 
L 164.562056 218.960847 
L 171.855643 202.313961 
L 179.14923 176.246297 
L 186.442817 138.553128 
L 193.736404 86.66349 
L 201.029991 17.601688 
L 202.543273 -1 
M 7.016059 -1 
L 77.039013 130.823383 
L 91.626187 157.895286 
L 98.919774 171.099717 
L 106.213361 183.87974 
L 113.506948 195.99935 
L 120.800534 207.13537 
L 128.094121 216.858212 
L 135.387708 224.6107 
L 142.681295 229.684975 
L 149.974882 231.19748 
L 157.268469 228.062011 
L 164.562056 218.960847 
L 171.855643 202.313961 
L 179.14923 176.246297 
L 186.442817 138.553128 
L 193.736404 86.66349 
L 201.029991 17.601688 
L 202.543273 -1 
M 7.016059 -1 
L 77.039013 130.823383 
L 91.626187 157.895286 
L 98.919774 171.099717 
L 106.213361 183.87974 
L 113.506948 195.99935 
L 120.800534 207.13537 
L 128.094121 216.858212 
L 135.387708 224.6107 
L 142.681295 229.684975 
L 149.974882 231.19748 
L 157.268469 228.062011 
L 164.562056 218.960847 
L 171.855643 202.313961 
L 179.14923 176.246297 
L 186.442817 138.553128 
L 193.736404 86.66349 
L 201.029991 17.601688 
L 202.543273 -1 
M 7.016059 -1 
L 77.039013 130.823383 
L 91.626187 157.895286 
L 98.919774 171.099717 
L 106.213361 183.87974 
L 113.506948 195.99935 
L 120.800534 207.13537 
L 128.094121 216.858212 
L 135.387708 224.6107 
L 142.681295 229.684975 
L 149.974882 231.19748 
L 157.268469 228.062011 
L 164.562056 218.960847 
L 171.855643 202.313961 
L 179.14923 176.246297 
L 186.442817 138.553128 
L 193.736404 86.66349 
L 201.029991 17.601688 
L 202.543273 -1 
M 7.016059 -1 
L 77.039013 130.823383 
L 91.626187 157.895286 
L 98.919774 171.099717 
L 106.213361 183.87974 
L 113.506948 195.99935 
L 120.800534 207.13537 
L 128.094121 216.858212 
L 135.387708 224.6107 
L 142.681295 229.684975 
L 149.974882 231.19748 
L 157.268469 228.062011 
L 164.562056 218.960847 
L 171.855643 202.313961 
L 179.14923 176.246297 
L 186.442817 138.553128 
L 193.736404 86.66349 
L 201.029991 17.601688 
L 202.543273 -1 
M 7.016059 -1 
L 77.039013 130.823383 
L 91.626187 157.895286 
L 98.919774 171.099717 
L 106.213361 183.87974 
L 113.506948 195.99935 
L 120.800534 207.13537 
L 128.094121 216.858212 
L 135.387708 224.6107 
L 142.681295 229.684975 
L 149.974882 231.19748 
L 157.268469 228.062011 
L 164.562056 218.960847 
L 171.855643 202.313961 
L 179.14923 176.246297 
L 186.442817 138.553128 
L 193.736404 86.66349 
L 201.029991 17.601688 
L 202.543273 -1 
M 7.016059 -1 
L 77.039013 130.823383 
L 91.626187 157.895286 
L 98.919774 171.099717 
L 106.213361 183.87974 
L 113.506948 195.99935 
L 120.800534 207.13537 
L 128.094121 216.858212 
L 135.387708 224.6107 
L 142.681295 229.684975 
L 149.974882 231.19748 
L 157.268469 228.062011 
L 164.562056 218.960847 
L 171.855643 202.313961 
L 179.14923 176.246297 
L 186.442817 138.553128 
L 193.736404 86.66349 
L 201.029991 17.601688 
L 202.543273 -1 
M 7.016059 -1 
L 77.039013 130.823383 
L 91.626187 157.895286 
L 98.919774 171.099717 
L 106.213361 183.87974 
L 113.506948 195.99935 
L 120.800534 207.13537 
L 128.094121 216.858212 
L 135.387708 224.6107 
L 142.681295 229.684975 
L 149.974882 231.19748 
L 157.268469 228.062011 
L 164.562056 218.960847 
L 171.855643 202.313961 
L 179.14923 176.246297 
L 186.442817 138.553128 
L 193.736404 86.66349 
L 201.029991 17.601688 
L 202.543273 -1 
M 7.016059 -1 
L 77.039013 130.823383 
L 91.626187 157.895286 
L 98.919774 171.099717 
L 106.213361 183.87974 
L 113.506948 195.99935 
L 120.800534 207.13537 
L 128.094121 216.858212 
L 135.387708 224.6107 
L 142.681295 229.684975 
L 149.974882 231.19748 
L 157.268469 228.062011 
L 164.562056 218.960847 
L 171.855643 202.313961 
L 179.14923 176.246297 
L 186.442817 138.553128 
L 193.736404 86.66349 
L 201.029991 17.601688 
L 202.543273 -1 
M 7.016059 -1 
L 77.039013 130.823383 
L 91.626187 157.895286 
L 98.919774 171.099717 
L 106.213361 183.87974 
L 113.506948 195.99935 
L 120.800534 207.13537 
L 128.094121 216.858212 
L 135.387708 224.6107 
L 142.681295 229.684975 
L 149.974882 231.19748 
L 157.268469 228.062011 
L 164.562056 218.960847 
L 171.855643 202.313961 
L 179.14923 176.246297 
L 186.442817 138.553128 
L 193.736404 86.66349 
L 201.029991 17.601688 
L 202.543273 -1 
M 7.016059 -1 
L 77.039013 130.823383 
L 91.626187 157.895286 
L 98.919774 171.099717 
L 106.213361 183.87974 
L 113.506948 195.99935 
L 120.800534 207.13537 
L 128.094121 216.858212 
L 135.387708 224.6107 
L 142.681295 229.684975 
L 149.974882 231.19748 
L 157.268469 228.062011 
L 164.562056 218.960847 
L 171.855643 202.313961 
L 179.14923 176.246297 
L 186.442817 138.553128 
L 193.736404 86.66349 
L 201.029991 17.601688 
L 202.543273 -1 
M 7.016059 -1 
L 77.039013 130.823383 
L 91.626187 157.895286 
L 98.919774 171.099717 
L 106.213361 183.87974 
L 113.506948 195.99935 
L 120.800534 207.13537 
L 128.094121 216.858212 
L 135.387708 224.6107 
L 142.681295 229.684975 
L 149.974882 231.19748 
L 157.268469 228.062011 
L 164.562056 218.960847 
L 171.855643 202.313961 
L 179.14923 176.246297 
L 186.442817 138.553128 
L 193.736404 86.66349 
L 201.029991 17.601688 
L 202.543273 -1 
M 7.016059 -1 
L 77.039013 130.823383 
L 91.626187 157.895286 
L 98.919774 171.099717 
L 106.213361 183.87974 
L 113.506948 195.99935 
L 120.800534 207.13537 
L 128.094121 216.858212 
L 135.387708 224.6107 
L 142.681295 229.684975 
L 149.974882 231.19748 
L 157.268469 228.062011 
L 164.562056 218.960847 
L 171.855643 202.313961 
L 179.14923 176.246297 
L 186.442817 138.553128 
L 193.736404 86.66349 
L 201.029991 17.601688 
L 202.543273 -1 
M 7.016059 -1 
L 77.039013 130.823383 
L 91.626187 157.895286 
L 98.919774 171.099717 
L 106.213361 183.87974 
L 113.506948 195.99935 
L 120.800534 207.13537 
L 128.094121 216.858212 
L 135.387708 224.6107 
L 142.681295 229.684975 
L 149.974882 231.19748 
L 157.268469 228.062011 
L 164.562056 218.960847 
L 171.855643 202.313961 
L 179.14923 176.246297 
L 186.442817 138.553128 
L 193.736404 86.66349 
L 201.029991 17.601688 
L 202.543273 -1 
M 7.016059 -1 
L 77.039013 130.823383 
L 91.626187 157.895286 
L 98.919774 171.099717 
L 106.213361 183.87974 
L 113.506948 195.99935 
L 120.800534 207.13537 
L 128.094121 216.858212 
L 135.387708 224.6107 
L 142.681295 229.684975 
L 149.974882 231.19748 
L 157.268469 228.062011 
L 164.562056 218.960847 
L 171.855643 202.313961 
L 179.14923 176.246297 
L 186.442817 138.553128 
L 193.736404 86.66349 
L 201.029991 17.601688 
L 202.543273 -1 
M 7.016059 -1 
L 77.039013 130.823383 
L 91.626187 157.895286 
L 98.919774 171.099717 
L 106.213361 183.87974 
L 113.506948 195.99935 
L 120.800534 207.13537 
L 128.094121 216.858212 
L 135.387708 224.6107 
L 142.681295 229.684975 
L 149.974882 231.19748 
L 157.268469 228.062011 
L 164.562056 218.960847 
L 171.855643 202.313961 
L 179.14923 176.246297 
L 186.442817 138.553128 
L 193.736404 86.66349 
L 201.029991 17.601688 
L 202.543273 -1 
M 7.016059 -1 
L 77.039013 130.823383 
L 91.626187 157.895286 
L 98.919774 171.099717 
L 106.213361 183.87974 
L 113.506948 195.99935 
L 120.800534 207.13537 
L 128.094121 216.858212 
L 135.387708 224.6107 
L 142.681295 229.684975 
L 149.974882 231.19748 
L 157.268469 228.062011 
L 164.562056 218.960847 
L 171.855643 202.313961 
L 179.14923 176.246297 
L 186.442817 138.553128 
L 193.736404 86.66349 
L 201.029991 17.601688 
L 202.543273 -1 
M 7.016059 -1 
L 77.039013 130.823383 
L 91.626187 157.895286 
L 98.919774 171.099717 
L 106.213361 183.87974 
L 113.506948 195.99935 
L 120.800534 207.13537 
L 128.094121 216.858212 
L 135.387708 224.6107 
L 142.681295 229.684975 
L 149.974882 231.19748 
L 157.268469 228.062011 
L 164.562056 218.960847 
L 171.855643 202.313961 
L 179.14923 176.246297 
L 186.442817 138.553128 
L 193.736404 86.66349 
L 201.029991 17.601688 
L 202.543273 -1 
M 7.016059 -1 
L 77.039013 130.823383 
L 91.626187 157.895286 
L 98.919774 171.099717 
L 106.213361 183.87974 
L 113.506948 195.99935 
L 120.800534 207.13537 
L 128.094121 216.858212 
L 135.387708 224.6107 
L 142.681295 229.684975 
L 149.974882 231.19748 
L 157.268469 228.062011 
L 164.562056 218.960847 
L 171.855643 202.313961 
L 179.14923 176.246297 
L 186.442817 138.553128 
L 193.736404 86.66349 
L 201.029991 17.601688 
L 202.543273 -1 
M 7.016059 -1 
L 77.039013 130.823383 
L 91.626187 157.895286 
L 98.919774 171.099717 
L 106.213361 183.87974 
L 113.506948 195.99935 
L 120.800534 207.13537 
L 128.094121 216.858212 
L 135.387708 224.6107 
L 142.681295 229.684975 
L 149.974882 231.19748 
L 157.268469 228.062011 
L 164.562056 218.960847 
L 171.855643 202.313961 
L 179.14923 176.246297 
L 186.442817 138.553128 
L 193.736404 86.66349 
L 201.029991 17.601688 
L 202.543273 -1 
M 7.016059 -1 
L 77.039013 130.823383 
L 91.626187 157.895286 
L 98.919774 171.099717 
L 106.213361 183.87974 
L 113.506948 195.99935 
L 120.800534 207.13537 
L 128.094121 216.858212 
L 135.387708 224.6107 
L 142.681295 229.684975 
L 149.974882 231.19748 
L 157.268469 228.062011 
L 164.562056 218.960847 
L 171.855643 202.313961 
L 179.14923 176.246297 
L 186.442817 138.553128 
L 193.736404 86.66349 
L 201.029991 17.601688 
L 202.543273 -1 
M 7.016059 -1 
L 77.039013 130.823383 
L 91.626187 157.895286 
L 98.919774 171.099717 
L 106.213361 183.87974 
L 113.506948 195.99935 
L 120.800534 207.13537 
L 128.094121 216.858212 
L 135.387708 224.6107 
L 142.681295 229.684975 
L 149.974882 231.19748 
L 157.268469 228.062011 
L 164.562056 218.960847 
L 171.855643 202.313961 
L 179.14923 176.246297 
L 186.442817 138.553128 
L 193.736404 86.66349 
L 201.029991 17.601688 
L 202.543273 -1 
M 7.016059 -1 
L 77.039013 130.823383 
L 91.626187 157.895286 
L 98.919774 171.099717 
L 106.213361 183.87974 
L 113.506948 195.99935 
L 120.800534 207.13537 
L 128.094121 216.858212 
L 135.387708 224.6107 
L 142.681295 229.684975 
L 149.974882 231.19748 
L 157.268469 228.062011 
L 164.562056 218.960847 
L 171.855643 202.313961 
L 179.14923 176.246297 
L 186.442817 138.553128 
L 193.736404 86.66349 
L 201.029991 17.601688 
L 202.543273 -1 
M 7.016059 -1 
L 77.039013 130.823383 
L 91.626187 157.895286 
L 98.919774 171.099717 
L 106.213361 183.87974 
L 113.506948 195.99935 
L 120.800534 207.13537 
L 128.094121 216.858212 
L 135.387708 224.6107 
L 142.681295 229.684975 
L 149.974882 231.19748 
L 157.268469 228.062011 
L 164.562056 218.960847 
L 171.855643 202.313961 
L 179.14923 176.246297 
L 186.442817 138.553128 
L 193.736404 86.66349 
L 201.029991 17.601688 
L 202.543273 -1 
M 7.016059 -1 
L 77.039013 130.823383 
L 91.626187 157.895286 
L 98.919774 171.099717 
L 106.213361 183.87974 
L 113.506948 195.99935 
L 120.800534 207.13537 
L 128.094121 216.858212 
L 135.387708 224.6107 
L 142.681295 229.684975 
L 149.974882 231.19748 
L 157.268469 228.062011 
L 164.562056 218.960847 
L 171.855643 202.313961 
L 179.14923 176.246297 
L 186.442817 138.553128 
L 193.736404 86.66349 
L 201.029991 17.601688 
L 202.543273 -1 
M 7.016059 -1 
L 77.039013 130.823383 
L 91.626187 157.895286 
L 98.919774 171.099717 
L 106.213361 183.87974 
L 113.506948 195.99935 
L 120.800534 207.13537 
L 128.094121 216.858212 
L 135.387708 224.6107 
L 142.681295 229.684975 
L 149.974882 231.19748 
L 157.268469 228.062011 
L 164.562056 218.960847 
L 171.855643 202.313961 
L 179.14923 176.246297 
L 186.442817 138.553128 
L 193.736404 86.66349 
L 201.029991 17.601688 
L 202.543273 -1 
M 7.016059 -1 
L 77.039013 130.823383 
L 91.626187 157.895286 
L 98.919774 171.099717 
L 106.213361 183.87974 
L 113.506948 195.99935 
L 120.800534 207.13537 
L 128.094121 216.858212 
L 135.387708 224.6107 
L 142.681295 229.684975 
L 149.974882 231.19748 
L 157.268469 228.062011 
L 164.562056 218.960847 
L 171.855643 202.313961 
L 179.14923 176.246297 
L 186.442817 138.553128 
L 193.736404 86.66349 
L 201.029991 17.601688 
L 202.543273 -1 
M 7.016059 -1 
L 77.039013 130.823383 
L 91.626187 157.895286 
L 98.919774 171.099717 
L 106.213361 183.87974 
L 113.506948 195.99935 
L 120.800534 207.13537 
L 128.094121 216.858212 
L 135.387708 224.6107 
L 142.681295 229.684975 
L 149.974882 231.19748 
L 157.268469 228.062011 
L 164.562056 218.960847 
L 171.855643 202.313961 
L 179.14923 176.246297 
L 186.442817 138.553128 
L 193.736404 86.66349 
L 201.029991 17.601688 
L 202.543273 -1 
M 7.016059 -1 
L 77.039013 130.823383 
L 91.626187 157.895286 
L 98.919774 171.099717 
L 106.213361 183.87974 
L 113.506948 195.99935 
L 120.800534 207.13537 
L 128.094121 216.858212 
L 135.387708 224.6107 
L 142.681295 229.684975 
L 149.974882 231.19748 
L 157.268469 228.062011 
L 164.562056 218.960847 
L 171.855643 202.313961 
L 179.14923 176.246297 
L 186.442817 138.553128 
L 193.736404 86.66349 
L 201.029991 17.601688 
L 202.543273 -1 
M 7.016059 -1 
L 77.039013 130.823383 
L 91.626187 157.895286 
L 98.919774 171.099717 
L 106.213361 183.87974 
L 113.506948 195.99935 
L 120.800534 207.13537 
L 128.094121 216.858212 
L 135.387708 224.6107 
L 142.681295 229.684975 
L 149.974882 231.19748 
L 157.268469 228.062011 
L 164.562056 218.960847 
L 171.855643 202.313961 
L 179.14923 176.246297 
L 186.442817 138.553128 
L 193.736404 86.66349 
L 201.029991 17.601688 
L 202.543273 -1 
M 7.016059 -1 
L 77.039013 130.823383 
L 91.626187 157.895286 
L 98.919774 171.099717 
L 106.213361 183.87974 
L 113.506948 195.99935 
L 120.800534 207.13537 
L 128.094121 216.858212 
L 135.387708 224.6107 
L 142.681295 229.684975 
L 149.974882 231.19748 
L 157.268469 228.062011 
L 164.562056 218.960847 
L 171.855643 202.313961 
L 179.14923 176.246297 
L 186.442817 138.553128 
L 193.736404 86.66349 
L 201.029991 17.601688 
L 202.543273 -1 
M 7.016059 -1 
L 77.039013 130.823383 
L 91.626187 157.895286 
L 98.919774 171.099717 
L 106.213361 183.87974 
L 113.506948 195.99935 
L 120.800534 207.13537 
L 128.094121 216.858212 
L 135.387708 224.6107 
L 142.681295 229.684975 
L 149.974882 231.19748 
L 157.268469 228.062011 
L 164.562056 218.960847 
L 171.855643 202.313961 
L 179.14923 176.246297 
L 186.442817 138.553128 
L 193.736404 86.66349 
L 201.029991 17.601688 
L 202.543273 -1 
M 7.016059 -1 
L 77.039013 130.823383 
L 91.626187 157.895286 
L 98.919774 171.099717 
L 106.213361 183.87974 
L 113.506948 195.99935 
L 120.800534 207.13537 
L 128.094121 216.858212 
L 135.387708 224.6107 
L 142.681295 229.684975 
L 149.974882 231.19748 
L 157.268469 228.062011 
L 164.562056 218.960847 
L 171.855643 202.313961 
L 179.14923 176.246297 
L 186.442817 138.553128 
L 193.736404 86.66349 
L 201.029991 17.601688 
L 202.543273 -1 
M 7.016059 -1 
L 77.039013 130.823383 
L 91.626187 157.895286 
L 98.919774 171.099717 
L 106.213361 183.87974 
L 113.506948 195.99935 
L 120.800534 207.13537 
L 128.094121 216.858212 
L 135.387708 224.6107 
L 142.681295 229.684975 
L 149.974882 231.19748 
L 157.268469 228.062011 
L 164.562056 218.960847 
L 171.855643 202.313961 
L 179.14923 176.246297 
L 186.442817 138.553128 
L 193.736404 86.66349 
L 201.029991 17.601688 
L 202.543273 -1 
M 7.016059 -1 
L 77.039013 130.823383 
L 91.626187 157.895286 
L 98.919774 171.099717 
L 106.213361 183.87974 
L 113.506948 195.99935 
L 120.800534 207.13537 
L 128.094121 216.858212 
L 135.387708 224.6107 
L 142.681295 229.684975 
L 149.974882 231.19748 
L 157.268469 228.062011 
L 164.562056 218.960847 
L 171.855643 202.313961 
L 179.14923 176.246297 
L 186.442817 138.553128 
L 193.736404 86.66349 
L 201.029991 17.601688 
L 202.543273 -1 
M 7.016059 -1 
L 77.039013 130.823383 
L 91.626187 157.895286 
L 98.919774 171.099717 
L 106.213361 183.87974 
L 113.506948 195.99935 
L 120.800534 207.13537 
L 128.094121 216.858212 
L 135.387708 224.6107 
L 142.681295 229.684975 
L 149.974882 231.19748 
L 157.268469 228.062011 
L 164.562056 218.960847 
L 171.855643 202.313961 
L 179.14923 176.246297 
L 186.442817 138.553128 
L 193.736404 86.66349 
L 201.029991 17.601688 
L 202.543273 -1 
M 7.016059 -1 
L 77.039013 130.823383 
L 91.626187 157.895286 
L 98.919774 171.099717 
L 106.213361 183.87974 
L 113.506948 195.99935 
L 120.800534 207.13537 
L 128.094121 216.858212 
L 135.387708 224.6107 
L 142.681295 229.684975 
L 149.974882 231.19748 
L 157.268469 228.062011 
L 164.562056 218.960847 
L 171.855643 202.313961 
L 179.14923 176.246297 
L 186.442817 138.553128 
L 193.736404 86.66349 
L 201.029991 17.601688 
L 202.543273 -1 
M 7.016059 -1 
L 77.039013 130.823383 
L 91.626187 157.895286 
L 98.919774 171.099717 
L 106.213361 183.87974 
L 113.506948 195.99935 
L 120.800534 207.13537 
L 128.094121 216.858212 
L 135.387708 224.6107 
L 142.681295 229.684975 
L 149.974882 231.19748 
L 157.268469 228.062011 
L 164.562056 218.960847 
L 171.855643 202.313961 
L 179.14923 176.246297 
L 186.442817 138.553128 
L 193.736404 86.66349 
L 201.029991 17.601688 
L 202.543273 -1 
M 7.016059 -1 
L 77.039013 130.823383 
L 91.626187 157.895286 
L 98.919774 171.099717 
L 106.213361 183.87974 
L 113.506948 195.99935 
L 120.800534 207.13537 
L 128.094121 216.858212 
L 135.387708 224.6107 
L 142.681295 229.684975 
L 149.974882 231.19748 
L 157.268469 228.062011 
L 164.562056 218.960847 
L 171.855643 202.313961 
L 179.14923 176.246297 
L 186.442817 138.553128 
L 193.736404 86.66349 
L 201.029991 17.601688 
L 202.543273 -1 
M 7.016059 -1 
L 77.039013 130.823383 
L 91.626187 157.895286 
L 98.919774 171.099717 
L 106.213361 183.87974 
L 113.506948 195.99935 
L 120.800534 207.13537 
L 128.094121 216.858212 
L 135.387708 224.6107 
L 142.681295 229.684975 
L 149.974882 231.19748 
L 157.268469 228.062011 
L 164.562056 218.960847 
L 171.855643 202.313961 
L 179.14923 176.246297 
L 186.442817 138.553128 
L 193.736404 86.66349 
L 201.029991 17.601688 
L 202.543273 -1 
M 7.016059 -1 
L 77.039013 130.823383 
L 91.626187 157.895286 
L 98.919774 171.099717 
L 106.213361 183.87974 
L 113.506948 195.99935 
L 120.800534 207.13537 
L 128.094121 216.858212 
L 135.387708 224.6107 
L 142.681295 229.684975 
L 149.974882 231.19748 
L 157.268469 228.062011 
L 164.562056 218.960847 
L 171.855643 202.313961 
L 179.14923 176.246297 
L 186.442817 138.553128 
L 193.736404 86.66349 
L 201.029991 17.601688 
L 202.543273 -1 
M 7.016059 -1 
L 77.039013 130.823383 
L 91.626187 157.895286 
L 98.919774 171.099717 
L 106.213361 183.87974 
L 113.506948 195.99935 
L 120.800534 207.13537 
L 128.094121 216.858212 
L 135.387708 224.6107 
L 142.681295 229.684975 
L 149.974882 231.19748 
L 157.268469 228.062011 
L 164.562056 218.960847 
L 171.855643 202.313961 
L 179.14923 176.246297 
L 186.442817 138.553128 
L 193.736404 86.66349 
L 201.029991 17.601688 
L 202.543273 -1 
M 7.016059 -1 
L 77.039013 130.823383 
L 91.626187 157.895286 
L 98.919774 171.099717 
L 106.213361 183.87974 
L 113.506948 195.99935 
L 120.800534 207.13537 
L 128.094121 216.858212 
L 135.387708 224.6107 
L 142.681295 229.684975 
L 149.974882 231.19748 
L 157.268469 228.062011 
L 164.562056 218.960847 
L 171.855643 202.313961 
L 179.14923 176.246297 
L 186.442817 138.553128 
L 193.736404 86.66349 
L 201.029991 17.601688 
L 202.543273 -1 
M 7.016059 -1 
L 77.039013 130.823383 
L 91.626187 157.895286 
L 98.919774 171.099717 
L 106.213361 183.87974 
L 113.506948 195.99935 
L 120.800534 207.13537 
L 128.094121 216.858212 
L 135.387708 224.6107 
L 142.681295 229.684975 
L 149.974882 231.19748 
L 157.268469 228.062011 
L 164.562056 218.960847 
L 171.855643 202.313961 
L 179.14923 176.246297 
L 186.442817 138.553128 
L 193.736404 86.66349 
L 201.029991 17.601688 
L 202.543273 -1 
M 7.016059 -1 
L 77.039013 130.823383 
L 91.626187 157.895286 
L 98.919774 171.099717 
L 106.213361 183.87974 
L 113.506948 195.99935 
L 120.800534 207.13537 
L 128.094121 216.858212 
L 135.387708 224.6107 
L 142.681295 229.684975 
L 149.974882 231.19748 
L 157.268469 228.062011 
L 164.562056 218.960847 
L 171.855643 202.313961 
L 179.14923 176.246297 
L 186.442817 138.553128 
L 193.736404 86.66349 
L 201.029991 17.601688 
L 202.543273 -1 
M 7.016059 -1 
L 77.039013 130.823383 
L 91.626187 157.895286 
L 98.919774 171.099717 
L 106.213361 183.87974 
L 113.506948 195.99935 
L 120.800534 207.13537 
L 128.094121 216.858212 
L 135.387708 224.6107 
L 142.681295 229.684975 
L 149.974882 231.19748 
L 157.268469 228.062011 
L 164.562056 218.960847 
L 171.855643 202.313961 
L 179.14923 176.246297 
L 186.442817 138.553128 
L 193.736404 86.66349 
L 201.029991 17.601688 
L 202.543273 -1 
M 7.016059 -1 
L 77.039013 130.823383 
L 91.626187 157.895286 
L 98.919774 171.099717 
L 106.213361 183.87974 
L 113.506948 195.99935 
L 120.800534 207.13537 
L 128.094121 216.858212 
L 135.387708 224.6107 
L 142.681295 229.684975 
L 149.974882 231.19748 
L 157.268469 228.062011 
L 164.562056 218.960847 
L 171.855643 202.313961 
L 179.14923 176.246297 
L 186.442817 138.553128 
L 193.736404 86.66349 
L 201.029991 17.601688 
L 202.543273 -1 
M 7.016059 -1 
L 77.039013 130.823383 
L 91.626187 157.895286 
L 98.919774 171.099717 
L 106.213361 183.87974 
L 113.506948 195.99935 
L 120.800534 207.13537 
L 128.094121 216.858212 
L 135.387708 224.6107 
L 142.681295 229.684975 
L 149.974882 231.19748 
L 157.268469 228.062011 
L 164.562056 218.960847 
L 171.855643 202.313961 
L 179.14923 176.246297 
L 186.442817 138.553128 
L 193.736404 86.66349 
L 201.029991 17.601688 
L 202.543273 -1 
M 7.016059 -1 
L 77.039013 130.823383 
L 91.626187 157.895286 
L 98.919774 171.099717 
L 106.213361 183.87974 
L 113.506948 195.99935 
L 120.800534 207.13537 
L 128.094121 216.858212 
L 135.387708 224.6107 
L 142.681295 229.684975 
L 149.974882 231.19748 
L 157.268469 228.062011 
L 164.562056 218.960847 
L 171.855643 202.313961 
L 179.14923 176.246297 
L 186.442817 138.553128 
L 193.736404 86.66349 
L 201.029991 17.601688 
L 202.543273 -1 
M 7.016059 -1 
L 77.039013 130.823383 
L 91.626187 157.895286 
L 98.919774 171.099717 
L 106.213361 183.87974 
L 113.506948 195.99935 
L 120.800534 207.13537 
L 128.094121 216.858212 
L 135.387708 224.6107 
L 142.681295 229.684975 
L 149.974882 231.19748 
L 157.268469 228.062011 
L 164.562056 218.960847 
L 171.855643 202.313961 
L 179.14923 176.246297 
L 186.442817 138.553128 
L 193.736404 86.66349 
L 201.029991 17.601688 
L 202.543273 -1 
M 7.016059 -1 
L 77.039013 130.823383 
L 91.626187 157.895286 
L 98.919774 171.099717 
L 106.213361 183.87974 
L 113.506948 195.99935 
L 120.800534 207.13537 
L 128.094121 216.858212 
L 135.387708 224.6107 
L 142.681295 229.684975 
L 149.974882 231.19748 
L 157.268469 228.062011 
L 164.562056 218.960847 
L 171.855643 202.313961 
L 179.14923 176.246297 
L 186.442817 138.553128 
L 193.736404 86.66349 
L 201.029991 17.601688 
L 202.543273 -1 
M 7.016059 -1 
L 77.039013 130.823383 
L 91.626187 157.895286 
L 98.919774 171.099717 
L 106.213361 183.87974 
L 113.506948 195.99935 
L 120.800534 207.13537 
L 128.094121 216.858212 
L 135.387708 224.6107 
L 142.681295 229.684975 
L 149.974882 231.19748 
L 157.268469 228.062011 
L 164.562056 218.960847 
L 171.855643 202.313961 
L 179.14923 176.246297 
L 186.442817 138.553128 
L 193.736404 86.66349 
L 201.029991 17.601688 
L 202.543273 -1 
M 7.016059 -1 
L 77.039013 130.823383 
L 91.626187 157.895286 
L 98.919774 171.099717 
L 106.213361 183.87974 
L 113.506948 195.99935 
L 120.800534 207.13537 
L 128.094121 216.858212 
L 135.387708 224.6107 
L 142.681295 229.684975 
L 149.974882 231.19748 
L 157.268469 228.062011 
L 164.562056 218.960847 
L 171.855643 202.313961 
L 179.14923 176.246297 
L 186.442817 138.553128 
L 193.736404 86.66349 
L 201.029991 17.601688 
L 202.543273 -1 
M 7.016059 -1 
L 77.039013 130.823383 
L 91.626187 157.895286 
L 98.919774 171.099717 
L 106.213361 183.87974 
L 113.506948 195.99935 
L 120.800534 207.13537 
L 128.094121 216.858212 
L 135.387708 224.6107 
L 142.681295 229.684975 
L 149.974882 231.19748 
L 157.268469 228.062011 
L 164.562056 218.960847 
L 171.855643 202.313961 
L 179.14923 176.246297 
L 186.442817 138.553128 
L 193.736404 86.66349 
L 201.029991 17.601688 
L 202.543273 -1 
M 7.016059 -1 
L 77.039013 130.823383 
L 91.626187 157.895286 
L 98.919774 171.099717 
L 106.213361 183.87974 
L 113.506948 195.99935 
L 120.800534 207.13537 
L 128.094121 216.858212 
L 135.387708 224.6107 
L 142.681295 229.684975 
L 149.974882 231.19748 
L 157.268469 228.062011 
L 164.562056 218.960847 
L 171.855643 202.313961 
L 179.14923 176.246297 
L 186.442817 138.553128 
L 193.736404 86.66349 
L 201.029991 17.601688 
L 202.543273 -1 
M 7.016059 -1 
L 77.039013 130.823383 
L 91.626187 157.895286 
L 98.919774 171.099717 
L 106.213361 183.87974 
L 113.506948 195.99935 
L 120.800534 207.13537 
L 128.094121 216.858212 
L 135.387708 224.6107 
L 142.681295 229.684975 
L 149.974882 231.19748 
L 157.268469 228.062011 
L 164.562056 218.960847 
L 171.855643 202.313961 
L 179.14923 176.246297 
L 186.442817 138.553128 
L 193.736404 86.66349 
L 201.029991 17.601688 
L 202.543273 -1 
M 7.016059 -1 
L 77.039013 130.823383 
L 91.626187 157.895286 
L 98.919774 171.099717 
L 106.213361 183.87974 
L 113.506948 195.99935 
L 120.800534 207.13537 
L 128.094121 216.858212 
L 135.387708 224.6107 
L 142.681295 229.684975 
L 149.974882 231.19748 
L 157.268469 228.062011 
L 164.562056 218.960847 
L 171.855643 202.313961 
L 179.14923 176.246297 
L 186.442817 138.553128 
L 193.736404 86.66349 
L 201.029991 17.601688 
L 202.543273 -1 
L 202.543273 -1 
" clip-path="url(#p9e9b1909d1)" style="fill: none; stroke-dasharray: 5.55,2.4; stroke-dashoffset: 0; stroke: #000000; stroke-width: 1.5"/>
   </g>
   <g id="patch_3">
    <path d="M 34.069647 231.19748 
L 34.069647 40.114286 
" style="fill: none; stroke: #000000; stroke-width: 0.8; stroke-linejoin: miter; stroke-linecap: square"/>
   </g>
   <g id="patch_4">
    <path d="M 216.246948 231.19748 
L 216.246948 40.114286 
" style="fill: none; stroke: #000000; stroke-width: 0.8; stroke-linejoin: miter; stroke-linecap: square"/>
   </g>
   <g id="patch_5">
    <path d="M 34.069647 231.19748 
L 216.246948 231.19748 
" style="fill: none; stroke: #000000; stroke-width: 0.8; stroke-linejoin: miter; stroke-linecap: square"/>
   </g>
   <g id="patch_6">
    <path d="M 34.069647 40.114286 
L 216.246948 40.114286 
" style="fill: none; stroke: #000000; stroke-width: 0.8; stroke-linejoin: miter; stroke-linecap: square"/>
   </g>
  </g>
 </g>
 <defs>
  <clipPath id="p9e9b1909d1">
   <rect x="34.069647" y="40.114286" width="182.177301" height="191.083195"/>
  </clipPath>
 </defs>
</svg>
