<?xml version="1.0" encoding="utf-8" standalone="no"?>
<!DOCTYPE svg PUBLIC "-//W3C//DTD SVG 1.1//EN"
  "http://www.w3.org/Graphics/SVG/1.1/DTD/svg11.dtd">
<svg xmlns:xlink="http://www.w3.org/1999/xlink" width="226.771654pt" height="340.15748pt" viewBox="0 0 226.771654 340.15748" xmlns="http://www.w3.org/2000/svg" version="1.1">
 <metadata>
  <rdf:RDF xmlns:dc="http://purl.org/dc/elements/1.1/" xmlns:cc="http://creativecommons.org/ns#" xmlns:rdf="http://www.w3.org/1999/02/22-rdf-syntax-ns#">
   <cc:Work>
    <dc:type rdf:resource="http://purl.org/dc/dcmitype/StillImage"/>
    <dc:date>2025-05-23T18:05:43.195458</dc:date>
    <dc:format>image/svg+xml</dc:format>
    <dc:creator>
     <cc:Agent>
      <dc:title>Matplotlib v3.8.4, https://matplotlib.org/</dc:title>
     </cc:Agent>
    </dc:creator>
   </cc:Work>
  </rdf:RDF>
 </metadata>
 <defs>
  <style type="text/css">*{stroke-linejoin: round; stroke-linecap: butt}</style>
 </defs>
 <g id="figure_1">
  <g id="patch_1">
   <path d="M 0 340.15748 
L 226.771654 340.15748 
L 226.771654 0 
L 0 0 
z
" style="fill: #ffffff"/>
  </g>
  <g id="axes_1">
   <g id="patch_2">
    <path d="M 34.069647 231.19748 
L 216.246948 231.19748 
L 216.246948 40.114286 
L 34.069647 40.114286 
z
" style="fill: #ffffff"/>
   </g>
   <g id="matplotlib.axis_1">
    <g id="xtick_1">
     <g id="line2d_1">
      <path d="M 34.069647 231.19748 
L 34.069647 40.114286 
" clip-path="url(#pbdb93f9b37)" style="fill: none; stroke: #b0b0b0; stroke-width: 0.8; stroke-linecap: square"/>
     </g>
     <g id="line2d_2">
      <defs>
       <path id="m00b7a8f1f0" d="M 0 0 
L 0 3.5 
" style="stroke: #000000; stroke-width: 0.8"/>
      </defs>
      <g>
       <use xlink:href="#m00b7a8f1f0" x="34.069647" y="231.19748" style="stroke: #000000; stroke-width: 0.8"/>
      </g>
     </g>
     <g id="text_1">
      <!-- −10 -->
      <g transform="translate(17.185897 250.35498) scale(0.16 -0.16)">
       <defs>
        <path id="DejaVuSerif-2212" d="M 678 2259 
L 4684 2259 
L 4684 1753 
L 678 1753 
L 678 2259 
z
" transform="scale(0.015625)"/>
        <path id="DejaVuSerif-31" d="M 909 0 
L 909 331 
L 1722 331 
L 1722 4213 
L 781 3603 
L 781 4013 
L 1919 4750 
L 2350 4750 
L 2350 331 
L 3163 331 
L 3163 0 
L 909 0 
z
" transform="scale(0.015625)"/>
        <path id="DejaVuSerif-30" d="M 2034 219 
Q 2513 219 2750 744 
Q 2988 1269 2988 2328 
Q 2988 3391 2750 3916 
Q 2513 4441 2034 4441 
Q 1556 4441 1318 3916 
Q 1081 3391 1081 2328 
Q 1081 1269 1318 744 
Q 1556 219 2034 219 
z
M 2034 -91 
Q 1275 -91 848 546 
Q 422 1184 422 2328 
Q 422 3475 848 4112 
Q 1275 4750 2034 4750 
Q 2797 4750 3222 4112 
Q 3647 3475 3647 2328 
Q 3647 1184 3222 546 
Q 2797 -91 2034 -91 
z
" transform="scale(0.015625)"/>
       </defs>
       <use xlink:href="#DejaVuSerif-2212"/>
       <use xlink:href="#DejaVuSerif-31" x="83.789062"/>
       <use xlink:href="#DejaVuSerif-30" x="147.412109"/>
      </g>
     </g>
    </g>
    <g id="xtick_2">
     <g id="line2d_3">
      <path d="M 70.505107 231.19748 
L 70.505107 40.114286 
" clip-path="url(#pbdb93f9b37)" style="fill: none; stroke: #b0b0b0; stroke-width: 0.8; stroke-linecap: square"/>
     </g>
     <g id="line2d_4">
      <g>
       <use xlink:href="#m00b7a8f1f0" x="70.505107" y="231.19748" style="stroke: #000000; stroke-width: 0.8"/>
      </g>
     </g>
     <g id="text_2">
      <!-- −8 -->
      <g transform="translate(58.711357 250.35498) scale(0.16 -0.16)">
       <defs>
        <path id="DejaVuSerif-38" d="M 2981 1275 
Q 2981 1775 2732 2051 
Q 2484 2328 2034 2328 
Q 1584 2328 1336 2051 
Q 1088 1775 1088 1275 
Q 1088 772 1336 495 
Q 1584 219 2034 219 
Q 2484 219 2732 495 
Q 2981 772 2981 1275 
z
M 2853 3541 
Q 2853 3966 2637 4203 
Q 2422 4441 2034 4441 
Q 1650 4441 1433 4203 
Q 1216 3966 1216 3541 
Q 1216 3113 1433 2875 
Q 1650 2638 2034 2638 
Q 2422 2638 2637 2875 
Q 2853 3113 2853 3541 
z
M 2516 2484 
Q 3047 2413 3344 2092 
Q 3641 1772 3641 1275 
Q 3641 619 3225 264 
Q 2809 -91 2034 -91 
Q 1263 -91 845 264 
Q 428 619 428 1275 
Q 428 1772 725 2092 
Q 1022 2413 1556 2484 
Q 1084 2569 832 2842 
Q 581 3116 581 3541 
Q 581 4103 968 4426 
Q 1356 4750 2034 4750 
Q 2713 4750 3100 4426 
Q 3488 4103 3488 3541 
Q 3488 3116 3236 2842 
Q 2984 2569 2516 2484 
z
" transform="scale(0.015625)"/>
       </defs>
       <use xlink:href="#DejaVuSerif-2212"/>
       <use xlink:href="#DejaVuSerif-38" x="83.789062"/>
      </g>
     </g>
    </g>
    <g id="xtick_3">
     <g id="line2d_5">
      <path d="M 106.940567 231.19748 
L 106.940567 40.114286 
" clip-path="url(#pbdb93f9b37)" style="fill: none; stroke: #b0b0b0; stroke-width: 0.8; stroke-linecap: square"/>
     </g>
     <g id="line2d_6">
      <g>
       <use xlink:href="#m00b7a8f1f0" x="106.940567" y="231.19748" style="stroke: #000000; stroke-width: 0.8"/>
      </g>
     </g>
     <g id="text_3">
      <!-- −6 -->
      <g transform="translate(95.146817 250.35498) scale(0.16 -0.16)">
       <defs>
        <path id="DejaVuSerif-36" d="M 2094 219 
Q 2534 219 2771 542 
Q 3009 866 3009 1472 
Q 3009 2078 2771 2401 
Q 2534 2725 2094 2725 
Q 1647 2725 1412 2412 
Q 1178 2100 1178 1509 
Q 1178 888 1415 553 
Q 1653 219 2094 219 
z
M 1075 2569 
Q 1288 2803 1556 2918 
Q 1825 3034 2163 3034 
Q 2859 3034 3264 2615 
Q 3669 2197 3669 1472 
Q 3669 763 3233 336 
Q 2797 -91 2069 -91 
Q 1278 -91 853 498 
Q 428 1088 428 2181 
Q 428 3406 931 4078 
Q 1434 4750 2350 4750 
Q 2597 4750 2869 4703 
Q 3141 4656 3425 4563 
L 3425 3794 
L 3072 3794 
Q 3034 4109 2831 4275 
Q 2628 4441 2284 4441 
Q 1678 4441 1381 3981 
Q 1084 3522 1075 2569 
z
" transform="scale(0.015625)"/>
       </defs>
       <use xlink:href="#DejaVuSerif-2212"/>
       <use xlink:href="#DejaVuSerif-36" x="83.789062"/>
      </g>
     </g>
    </g>
    <g id="xtick_4">
     <g id="line2d_7">
      <path d="M 143.376027 231.19748 
L 143.376027 40.114286 
" clip-path="url(#pbdb93f9b37)" style="fill: none; stroke: #b0b0b0; stroke-width: 0.8; stroke-linecap: square"/>
     </g>
     <g id="line2d_8">
      <g>
       <use xlink:href="#m00b7a8f1f0" x="143.376027" y="231.19748" style="stroke: #000000; stroke-width: 0.8"/>
      </g>
     </g>
     <g id="text_4">
      <!-- −4 -->
      <g transform="translate(131.582277 250.35498) scale(0.16 -0.16)">
       <defs>
        <path id="DejaVuSerif-34" d="M 2234 1581 
L 2234 4063 
L 641 1581 
L 2234 1581 
z
M 3609 0 
L 1484 0 
L 1484 331 
L 2234 331 
L 2234 1247 
L 197 1247 
L 197 1588 
L 2241 4750 
L 2859 4750 
L 2859 1581 
L 3750 1581 
L 3750 1247 
L 2859 1247 
L 2859 331 
L 3609 331 
L 3609 0 
z
" transform="scale(0.015625)"/>
       </defs>
       <use xlink:href="#DejaVuSerif-2212"/>
       <use xlink:href="#DejaVuSerif-34" x="83.789062"/>
      </g>
     </g>
    </g>
    <g id="xtick_5">
     <g id="line2d_9">
      <path d="M 179.811488 231.19748 
L 179.811488 40.114286 
" clip-path="url(#pbdb93f9b37)" style="fill: none; stroke: #b0b0b0; stroke-width: 0.8; stroke-linecap: square"/>
     </g>
     <g id="line2d_10">
      <g>
       <use xlink:href="#m00b7a8f1f0" x="179.811488" y="231.19748" style="stroke: #000000; stroke-width: 0.8"/>
      </g>
     </g>
     <g id="text_5">
      <!-- −2 -->
      <g transform="translate(168.017738 250.35498) scale(0.16 -0.16)">
       <defs>
        <path id="DejaVuSerif-32" d="M 819 3553 
L 469 3553 
L 469 4384 
Q 803 4563 1142 4656 
Q 1481 4750 1806 4750 
Q 2534 4750 2956 4397 
Q 3378 4044 3378 3438 
Q 3378 2753 2422 1800 
Q 2347 1728 2309 1691 
L 1131 513 
L 3078 513 
L 3078 1088 
L 3444 1088 
L 3444 0 
L 434 0 
L 434 341 
L 1850 1753 
Q 2319 2222 2519 2614 
Q 2719 3006 2719 3438 
Q 2719 3909 2473 4175 
Q 2228 4441 1797 4441 
Q 1350 4441 1106 4219 
Q 863 3997 819 3553 
z
" transform="scale(0.015625)"/>
       </defs>
       <use xlink:href="#DejaVuSerif-2212"/>
       <use xlink:href="#DejaVuSerif-32" x="83.789062"/>
      </g>
     </g>
    </g>
    <g id="xtick_6">
     <g id="line2d_11">
      <path d="M 216.246948 231.19748 
L 216.246948 40.114286 
" clip-path="url(#pbdb93f9b37)" style="fill: none; stroke: #b0b0b0; stroke-width: 0.8; stroke-linecap: square"/>
     </g>
     <g id="line2d_12">
      <g>
       <use xlink:href="#m00b7a8f1f0" x="216.246948" y="231.19748" style="stroke: #000000; stroke-width: 0.8"/>
      </g>
     </g>
     <g id="text_6">
      <!-- 0 -->
      <g transform="translate(211.156948 250.35498) scale(0.16 -0.16)">
       <use xlink:href="#DejaVuSerif-30"/>
      </g>
     </g>
    </g>
    <g id="text_7">
     <!-- $\langle{n| x|n \rangle}/l_B$ -->
     <g transform="translate(89.638297 270.00248) scale(0.16 -0.16)">
      <defs>
       <path id="DejaVuSans-27e8" d="M 572 2006 
L 1453 4856 
L 1984 4856 
L 1103 2006 
L 1984 -844 
L 1453 -844 
L 572 2006 
z
" transform="scale(0.015625)"/>
       <path id="DejaVuSans-Oblique-6e" d="M 3566 2113 
L 3156 0 
L 2578 0 
L 2988 2091 
Q 3016 2238 3031 2350 
Q 3047 2463 3047 2528 
Q 3047 2791 2881 2937 
Q 2716 3084 2419 3084 
Q 1956 3084 1622 2776 
Q 1288 2469 1184 1941 
L 800 0 
L 225 0 
L 903 3500 
L 1478 3500 
L 1363 2950 
Q 1603 3253 1940 3418 
Q 2278 3584 2650 3584 
Q 3113 3584 3367 3334 
Q 3622 3084 3622 2631 
Q 3622 2519 3608 2391 
Q 3594 2263 3566 2113 
z
" transform="scale(0.015625)"/>
       <path id="DejaVuSans-7c" d="M 1344 4891 
L 1344 -1509 
L 813 -1509 
L 813 4891 
L 1344 4891 
z
" transform="scale(0.015625)"/>
       <path id="DejaVuSans-Oblique-78" d="M 3841 3500 
L 2234 1784 
L 3219 0 
L 2559 0 
L 1819 1388 
L 531 0 
L -166 0 
L 1556 1844 
L 641 3500 
L 1300 3500 
L 1972 2234 
L 3144 3500 
L 3841 3500 
z
" transform="scale(0.015625)"/>
       <path id="DejaVuSans-27e9" d="M 1925 2006 
L 1044 -844 
L 513 -844 
L 1394 2006 
L 513 4856 
L 1044 4856 
L 1925 2006 
z
" transform="scale(0.015625)"/>
       <path id="DejaVuSans-2f" d="M 1625 4666 
L 2156 4666 
L 531 -594 
L 0 -594 
L 1625 4666 
z
" transform="scale(0.015625)"/>
       <path id="DejaVuSans-Oblique-6c" d="M 1172 4863 
L 1747 4863 
L 800 0 
L 225 0 
L 1172 4863 
z
" transform="scale(0.015625)"/>
       <path id="DejaVuSans-Oblique-42" d="M 1081 4666 
L 2694 4666 
Q 3350 4666 3675 4422 
Q 4000 4178 4000 3688 
Q 4000 3238 3720 2911 
Q 3441 2584 2988 2516 
Q 3375 2428 3569 2181 
Q 3763 1934 3763 1522 
Q 3763 819 3242 409 
Q 2722 0 1819 0 
L 172 0 
L 1081 4666 
z
M 1234 2228 
L 903 519 
L 1919 519 
Q 2491 519 2800 781 
Q 3109 1044 3109 1522 
Q 3109 1891 2904 2059 
Q 2700 2228 2247 2228 
L 1234 2228 
z
M 1606 4147 
L 1331 2741 
L 2272 2741 
Q 2775 2741 3058 2959 
Q 3341 3178 3341 3566 
Q 3341 3869 3150 4008 
Q 2959 4147 2541 4147 
L 1606 4147 
z
" transform="scale(0.015625)"/>
      </defs>
      <use xlink:href="#DejaVuSans-27e8" transform="translate(0 0.578125)"/>
      <use xlink:href="#DejaVuSans-Oblique-6e" transform="translate(39.013672 0.578125)"/>
      <use xlink:href="#DejaVuSans-7c" transform="translate(102.392578 0.578125)"/>
      <use xlink:href="#DejaVuSans-Oblique-78" transform="translate(136.083984 0.578125)"/>
      <use xlink:href="#DejaVuSans-7c" transform="translate(195.263672 0.578125)"/>
      <use xlink:href="#DejaVuSans-Oblique-6e" transform="translate(228.955078 0.578125)"/>
      <use xlink:href="#DejaVuSans-27e9" transform="translate(292.333984 0.578125)"/>
      <use xlink:href="#DejaVuSans-2f" transform="translate(331.347656 0.578125)"/>
      <use xlink:href="#DejaVuSans-Oblique-6c" transform="translate(365.039062 0.578125)"/>
      <use xlink:href="#DejaVuSans-Oblique-42" transform="translate(392.822266 -15.828125) scale(0.7)"/>
     </g>
    </g>
   </g>
   <g id="matplotlib.axis_2">
    <g id="ytick_1">
     <g id="line2d_13">
      <path d="M 34.069647 231.19748 
L 216.246948 231.19748 
" clip-path="url(#pbdb93f9b37)" style="fill: none; stroke: #b0b0b0; stroke-width: 0.8; stroke-linecap: square"/>
     </g>
     <g id="line2d_14">
      <defs>
       <path id="mbdb37a0617" d="M 0 0 
L -3.5 0 
" style="stroke: #000000; stroke-width: 0.8"/>
      </defs>
      <g>
       <use xlink:href="#mbdb37a0617" x="34.069647" y="231.19748" style="stroke: #000000; stroke-width: 0.8"/>
      </g>
     </g>
     <g id="text_8">
      <!-- 0.0 -->
      <g transform="translate(1.624647 237.27623) scale(0.16 -0.16)">
       <defs>
        <path id="DejaVuSerif-2e" d="M 603 325 
Q 603 500 722 622 
Q 841 744 1019 744 
Q 1191 744 1312 622 
Q 1434 500 1434 325 
Q 1434 153 1312 31 
Q 1191 -91 1019 -91 
Q 841 -91 722 29 
Q 603 150 603 325 
z
" transform="scale(0.015625)"/>
       </defs>
       <use xlink:href="#DejaVuSerif-30"/>
       <use xlink:href="#DejaVuSerif-2e" x="63.623047"/>
       <use xlink:href="#DejaVuSerif-30" x="95.410156"/>
      </g>
     </g>
    </g>
    <g id="ytick_2">
     <g id="line2d_15">
      <path d="M 34.069647 183.426682 
L 216.246948 183.426682 
" clip-path="url(#pbdb93f9b37)" style="fill: none; stroke: #b0b0b0; stroke-width: 0.8; stroke-linecap: square"/>
     </g>
     <g id="line2d_16">
      <g>
       <use xlink:href="#mbdb37a0617" x="34.069647" y="183.426682" style="stroke: #000000; stroke-width: 0.8"/>
      </g>
     </g>
     <g id="text_9">
      <!-- 0.2 -->
      <g transform="translate(1.624647 189.505432) scale(0.16 -0.16)">
       <use xlink:href="#DejaVuSerif-30"/>
       <use xlink:href="#DejaVuSerif-2e" x="63.623047"/>
       <use xlink:href="#DejaVuSerif-32" x="95.410156"/>
      </g>
     </g>
    </g>
    <g id="ytick_3">
     <g id="line2d_17">
      <path d="M 34.069647 135.655883 
L 216.246948 135.655883 
" clip-path="url(#pbdb93f9b37)" style="fill: none; stroke: #b0b0b0; stroke-width: 0.8; stroke-linecap: square"/>
     </g>
     <g id="line2d_18">
      <g>
       <use xlink:href="#mbdb37a0617" x="34.069647" y="135.655883" style="stroke: #000000; stroke-width: 0.8"/>
      </g>
     </g>
     <g id="text_10">
      <!-- 0.4 -->
      <g transform="translate(1.624647 141.734633) scale(0.16 -0.16)">
       <use xlink:href="#DejaVuSerif-30"/>
       <use xlink:href="#DejaVuSerif-2e" x="63.623047"/>
       <use xlink:href="#DejaVuSerif-34" x="95.410156"/>
      </g>
     </g>
    </g>
    <g id="ytick_4">
     <g id="line2d_19">
      <path d="M 34.069647 87.885084 
L 216.246948 87.885084 
" clip-path="url(#pbdb93f9b37)" style="fill: none; stroke: #b0b0b0; stroke-width: 0.8; stroke-linecap: square"/>
     </g>
     <g id="line2d_20">
      <g>
       <use xlink:href="#mbdb37a0617" x="34.069647" y="87.885084" style="stroke: #000000; stroke-width: 0.8"/>
      </g>
     </g>
     <g id="text_11">
      <!-- 0.6 -->
      <g transform="translate(1.624647 93.963834) scale(0.16 -0.16)">
       <use xlink:href="#DejaVuSerif-30"/>
       <use xlink:href="#DejaVuSerif-2e" x="63.623047"/>
       <use xlink:href="#DejaVuSerif-36" x="95.410156"/>
      </g>
     </g>
    </g>
    <g id="ytick_5">
     <g id="line2d_21">
      <path d="M 34.069647 40.114286 
L 216.246948 40.114286 
" clip-path="url(#pbdb93f9b37)" style="fill: none; stroke: #b0b0b0; stroke-width: 0.8; stroke-linecap: square"/>
     </g>
     <g id="line2d_22">
      <g>
       <use xlink:href="#mbdb37a0617" x="34.069647" y="40.114286" style="stroke: #000000; stroke-width: 0.8"/>
      </g>
     </g>
     <g id="text_12">
      <!-- 0.8 -->
      <g transform="translate(1.624647 46.193036) scale(0.16 -0.16)">
       <use xlink:href="#DejaVuSerif-30"/>
       <use xlink:href="#DejaVuSerif-2e" x="63.623047"/>
       <use xlink:href="#DejaVuSerif-38" x="95.410156"/>
      </g>
     </g>
    </g>
    <g id="text_13">
     <!-- $E_n/(\hbar\omega_B)$ -->
     <g transform="translate(-5.702853 169.735883) rotate(-90) scale(0.16 -0.16)">
      <defs>
       <path id="DejaVuSans-Oblique-45" d="M 1081 4666 
L 4031 4666 
L 3928 4134 
L 1606 4134 
L 1338 2753 
L 3566 2753 
L 3463 2222 
L 1234 2222 
L 909 531 
L 3284 531 
L 3181 0 
L 172 0 
L 1081 4666 
z
" transform="scale(0.015625)"/>
       <path id="DejaVuSans-28" d="M 1984 4856 
Q 1566 4138 1362 3434 
Q 1159 2731 1159 2009 
Q 1159 1288 1364 580 
Q 1569 -128 1984 -844 
L 1484 -844 
Q 1016 -109 783 600 
Q 550 1309 550 2009 
Q 550 2706 781 3412 
Q 1013 4119 1484 4856 
L 1984 4856 
z
" transform="scale(0.015625)"/>
       <path id="DejaVuSans-Oblique-127" d="M 3634 2113 
L 3225 0 
L 2650 0 
L 3056 2094 
Q 3094 2291 3094 2450 
Q 3094 2688 3006 2838 
Q 2863 3084 2475 3084 
Q 2009 3084 1681 2788 
Q 1356 2491 1256 1978 
L 872 0 
L 294 0 
L 1066 3969 
L 675 3969 
L 775 4481 
L 1166 4481 
L 1238 4863 
L 1816 4863 
L 1744 4481 
L 2844 4481 
L 2744 3969 
L 1644 3969 
L 1447 2956 
Q 1713 3272 2025 3428 
Q 2331 3584 2700 3584 
Q 3300 3584 3538 3213 
Q 3688 2975 3688 2606 
Q 3688 2381 3634 2113 
z
" transform="scale(0.015625)"/>
       <path id="DejaVuSans-Oblique-3c9" d="M 1369 -91 
Q 72 -91 434 1766 
Q 575 2500 1256 3500 
L 1875 3500 
Q 1231 2500 1088 1750 
Q 819 397 1519 397 
Q 2166 397 2478 2078 
L 3009 2078 
Q 2669 388 3316 397 
Q 4013 403 4275 1750 
Q 4419 2500 4169 3500 
L 4788 3500 
Q 5075 2500 4934 1766 
Q 4578 -94 3278 -91 
Q 2428 -88 2503 844 
Q 2194 -91 1369 -91 
z
" transform="scale(0.015625)"/>
       <path id="DejaVuSans-29" d="M 513 4856 
L 1013 4856 
Q 1481 4119 1714 3412 
Q 1947 2706 1947 2009 
Q 1947 1309 1714 600 
Q 1481 -109 1013 -844 
L 513 -844 
Q 928 -128 1133 580 
Q 1338 1288 1338 2009 
Q 1338 2731 1133 3434 
Q 928 4138 513 4856 
z
" transform="scale(0.015625)"/>
      </defs>
      <use xlink:href="#DejaVuSans-Oblique-45" transform="translate(0 0.015625)"/>
      <use xlink:href="#DejaVuSans-Oblique-6e" transform="translate(63.183594 -16.390625) scale(0.7)"/>
      <use xlink:href="#DejaVuSans-2f" transform="translate(110.283203 0.015625)"/>
      <use xlink:href="#DejaVuSans-28" transform="translate(143.974609 0.015625)"/>
      <use xlink:href="#DejaVuSans-Oblique-127" transform="translate(182.988281 0.015625)"/>
      <use xlink:href="#DejaVuSans-Oblique-3c9" transform="translate(252.470703 0.015625)"/>
      <use xlink:href="#DejaVuSans-Oblique-42" transform="translate(336.210938 -16.390625) scale(0.7)"/>
      <use xlink:href="#DejaVuSans-29" transform="translate(386.967773 0.015625)"/>
     </g>
    </g>
   </g>
   <g id="line2d_23">
    <defs>
     <path id="mbe8db122b8" d="M 0 2.5 
C 0.663008 2.5 1.29895 2.236584 1.767767 1.767767 
C 2.236584 1.29895 2.5 0.663008 2.5 0 
C 2.5 -0.663008 2.236584 -1.29895 1.767767 -1.767767 
C 1.29895 -2.236584 0.663008 -2.5 0 -2.5 
C -0.663008 -2.5 -1.29895 -2.236584 -1.767767 -1.767767 
C -2.236584 -1.29895 -2.5 -0.663008 -2.5 0 
C -2.5 0.663008 -2.236584 1.29895 -1.767767 1.767767 
C -1.29895 2.236584 -0.663008 2.5 0 2.5 
z
" style="stroke: #0000ff"/>
    </defs>
    <g clip-path="url(#pbdb93f9b37)">
     <use xlink:href="#mbe8db122b8" x="147.150309" y="231.19748" style="fill: #0000ff; stroke: #0000ff"/>
     <use xlink:href="#mbe8db122b8" x="143.464822" y="230.868962" style="fill: #0000ff; stroke: #0000ff"/>
     <use xlink:href="#mbe8db122b8" x="150.787865" y="230.276068" style="fill: #0000ff; stroke: #0000ff"/>
     <use xlink:href="#mbe8db122b8" x="139.734211" y="229.428459" style="fill: #0000ff; stroke: #0000ff"/>
     <use xlink:href="#mbe8db122b8" x="154.374856" y="227.9587" style="fill: #0000ff; stroke: #0000ff"/>
     <use xlink:href="#mbe8db122b8" x="135.961418" y="227.005363" style="fill: #0000ff; stroke: #0000ff"/>
     <use xlink:href="#mbe8db122b8" x="157.908846" y="224.091857" style="fill: #0000ff; stroke: #0000ff"/>
     <use xlink:href="#mbe8db122b8" x="132.149487" y="223.720141" style="fill: #0000ff; stroke: #0000ff"/>
     <use xlink:href="#mbe8db122b8" x="128.301522" y="219.684098" style="fill: #0000ff; stroke: #0000ff"/>
     <use xlink:href="#mbe8db122b8" x="161.387619" y="218.515206" style="fill: #0000ff; stroke: #0000ff"/>
     <use xlink:href="#mbe8db122b8" x="124.420648" y="214.999262" style="fill: #0000ff; stroke: #0000ff"/>
     <use xlink:href="#mbe8db122b8" x="164.8092" y="211.062355" style="fill: #0000ff; stroke: #0000ff"/>
     <use xlink:href="#mbe8db122b8" x="120.509969" y="209.758387" style="fill: #0000ff; stroke: #0000ff"/>
     <use xlink:href="#mbe8db122b8" x="116.572531" y="204.045083" style="fill: #0000ff; stroke: #0000ff"/>
     <use xlink:href="#mbe8db122b8" x="168.171858" y="201.56168" style="fill: #0000ff; stroke: #0000ff"/>
     <use xlink:href="#mbe8db122b8" x="112.611283" y="197.934053" style="fill: #0000ff; stroke: #0000ff"/>
     <use xlink:href="#mbe8db122b8" x="108.629051" y="191.49143" style="fill: #0000ff; stroke: #0000ff"/>
     <use xlink:href="#mbe8db122b8" x="171.474112" y="189.837188" style="fill: #0000ff; stroke: #0000ff"/>
     <use xlink:href="#mbe8db122b8" x="104.628507" y="184.775193" style="fill: #0000ff; stroke: #0000ff"/>
     <use xlink:href="#mbe8db122b8" x="100.612148" y="177.835671" style="fill: #0000ff; stroke: #0000ff"/>
     <use xlink:href="#mbe8db122b8" x="174.714731" y="175.709424" style="fill: #0000ff; stroke: #0000ff"/>
     <use xlink:href="#mbe8db122b8" x="96.582279" y="170.716081" style="fill: #0000ff; stroke: #0000ff"/>
     <use xlink:href="#mbe8db122b8" x="92.541006" y="163.453119" style="fill: #0000ff; stroke: #0000ff"/>
     <use xlink:href="#mbe8db122b8" x="177.892721" y="158.99639" style="fill: #0000ff; stroke: #0000ff"/>
     <use xlink:href="#mbe8db122b8" x="88.490224" y="156.077569" style="fill: #0000ff; stroke: #0000ff"/>
     <use xlink:href="#mbe8db122b8" x="84.431622" y="148.614923" style="fill: #0000ff; stroke: #0000ff"/>
     <use xlink:href="#mbe8db122b8" x="80.366682" y="141.085994" style="fill: #0000ff; stroke: #0000ff"/>
     <use xlink:href="#mbe8db122b8" x="181.007314" y="139.514472" style="fill: #0000ff; stroke: #0000ff"/>
     <use xlink:href="#mbe8db122b8" x="76.296687" y="133.507518" style="fill: #0000ff; stroke: #0000ff"/>
     <use xlink:href="#mbe8db122b8" x="72.222731" y="125.892727" style="fill: #0000ff; stroke: #0000ff"/>
     <use xlink:href="#mbe8db122b8" x="68.145732" y="118.251888" style="fill: #0000ff; stroke: #0000ff"/>
     <use xlink:href="#mbe8db122b8" x="184.057951" y="117.079366" style="fill: #0000ff; stroke: #0000ff"/>
     <use xlink:href="#mbe8db122b8" x="64.066445" y="110.592808" style="fill: #0000ff; stroke: #0000ff"/>
     <use xlink:href="#mbe8db122b8" x="59.985482" y="102.921284" style="fill: #0000ff; stroke: #0000ff"/>
     <use xlink:href="#mbe8db122b8" x="55.903321" y="95.241513" style="fill: #0000ff; stroke: #0000ff"/>
     <use xlink:href="#mbe8db122b8" x="187.044265" y="91.506989" style="fill: #0000ff; stroke: #0000ff"/>
     <use xlink:href="#mbe8db122b8" x="51.820333" y="87.556442" style="fill: #0000ff; stroke: #0000ff"/>
     <use xlink:href="#mbe8db122b8" x="47.736796" y="79.868072" style="fill: #0000ff; stroke: #0000ff"/>
     <use xlink:href="#mbe8db122b8" x="43.652914" y="72.1777" style="fill: #0000ff; stroke: #0000ff"/>
     <use xlink:href="#mbe8db122b8" x="39.568838" y="64.486104" style="fill: #0000ff; stroke: #0000ff"/>
     <use xlink:href="#mbe8db122b8" x="189.966055" y="62.614375" style="fill: #0000ff; stroke: #0000ff"/>
     <use xlink:href="#mbe8db122b8" x="35.484683" y="56.793677" style="fill: #0000ff; stroke: #0000ff"/>
     <use xlink:href="#mbe8db122b8" x="31.400552" y="49.100497" style="fill: #0000ff; stroke: #0000ff"/>
     <use xlink:href="#mbe8db122b8" x="27.316548" y="41.406343" style="fill: #0000ff; stroke: #0000ff"/>
     <use xlink:href="#mbe8db122b8" x="23.232802" y="33.710655" style="fill: #0000ff; stroke: #0000ff"/>
     <use xlink:href="#mbe8db122b8" x="192.823266" y="30.220551" style="fill: #0000ff; stroke: #0000ff"/>
     <use xlink:href="#mbe8db122b8" x="19.149487" y="26.012428" style="fill: #0000ff; stroke: #0000ff"/>
     <use xlink:href="#mbe8db122b8" x="15.066839" y="18.310062" style="fill: #0000ff; stroke: #0000ff"/>
     <use xlink:href="#mbe8db122b8" x="10.985175" y="10.60114" style="fill: #0000ff; stroke: #0000ff"/>
     <use xlink:href="#mbe8db122b8" x="6.904915" y="2.882165" style="fill: #0000ff; stroke: #0000ff"/>
     <use xlink:href="#mbe8db122b8" x="4.857742" y="-1" style="fill: #0000ff; stroke: #0000ff"/>
    </g>
   </g>
   <g id="line2d_24">
    <path d="M 6.941429 -1 
L 74.745492 126.661047 
L 90.062024 155.152313 
L 100.273046 173.625647 
L 105.378557 182.555467 
L 110.484068 191.178293 
L 115.589579 199.392848 
L 120.695089 207.074624 
L 125.8006 214.072576 
L 130.906111 220.205591 
L 136.011622 225.25874 
L 141.117133 228.979303 
L 146.222644 231.07258 
L 151.328155 231.19748 
L 156.433665 228.961885 
L 161.539176 223.917798 
L 166.644687 215.55627 
L 171.750198 203.302103 
L 176.855709 186.508337 
L 181.96122 164.450514 
L 187.066731 136.320719 
L 192.172241 101.221406 
L 197.277752 58.158997 
L 202.383263 6.037268 
L 202.959168 -1 
M 6.941429 -1 
L 74.745492 126.661047 
L 90.062024 155.152313 
L 100.273046 173.625647 
L 105.378557 182.555467 
L 110.484068 191.178293 
L 115.589579 199.392848 
L 120.695089 207.074624 
L 125.8006 214.072576 
L 130.906111 220.205591 
L 136.011622 225.25874 
L 141.117133 228.979303 
L 146.222644 231.07258 
L 151.328155 231.19748 
L 156.433665 228.961885 
L 161.539176 223.917798 
L 166.644687 215.55627 
L 171.750198 203.302103 
L 176.855709 186.508337 
L 181.96122 164.450514 
L 187.066731 136.320719 
L 192.172241 101.221406 
L 197.277752 58.158997 
L 202.383263 6.037268 
L 202.959168 -1 
M 6.941429 -1 
L 74.745492 126.661047 
L 90.062024 155.152313 
L 100.273046 173.625647 
L 105.378557 182.555467 
L 110.484068 191.178293 
L 115.589579 199.392848 
L 120.695089 207.074624 
L 125.8006 214.072576 
L 130.906111 220.205591 
L 136.011622 225.25874 
L 141.117133 228.979303 
L 146.222644 231.07258 
L 151.328155 231.19748 
L 156.433665 228.961885 
L 161.539176 223.917798 
L 166.644687 215.55627 
L 171.750198 203.302103 
L 176.855709 186.508337 
L 181.96122 164.450514 
L 187.066731 136.320719 
L 192.172241 101.221406 
L 197.277752 58.158997 
L 202.383263 6.037268 
L 202.959168 -1 
M 6.941429 -1 
L 74.745492 126.661047 
L 90.062024 155.152313 
L 100.273046 173.625647 
L 105.378557 182.555467 
L 110.484068 191.178293 
L 115.589579 199.392848 
L 120.695089 207.074624 
L 125.8006 214.072576 
L 130.906111 220.205591 
L 136.011622 225.25874 
L 141.117133 228.979303 
L 146.222644 231.07258 
L 151.328155 231.19748 
L 156.433665 228.961885 
L 161.539176 223.917798 
L 166.644687 215.55627 
L 171.750198 203.302103 
L 176.855709 186.508337 
L 181.96122 164.450514 
L 187.066731 136.320719 
L 192.172241 101.221406 
L 197.277752 58.158997 
L 202.383263 6.037268 
L 202.959168 -1 
M 6.941429 -1 
L 74.745492 126.661047 
L 90.062024 155.152313 
L 100.273046 173.625647 
L 105.378557 182.555467 
L 110.484068 191.178293 
L 115.589579 199.392848 
L 120.695089 207.074624 
L 125.8006 214.072576 
L 130.906111 220.205591 
L 136.011622 225.25874 
L 141.117133 228.979303 
L 146.222644 231.07258 
L 151.328155 231.19748 
L 156.433665 228.961885 
L 161.539176 223.917798 
L 166.644687 215.55627 
L 171.750198 203.302103 
L 176.855709 186.508337 
L 181.96122 164.450514 
L 187.066731 136.320719 
L 192.172241 101.221406 
L 197.277752 58.158997 
L 202.383263 6.037268 
L 202.959168 -1 
M 6.941429 -1 
L 74.745492 126.661047 
L 90.062024 155.152313 
L 100.273046 173.625647 
L 105.378557 182.555467 
L 110.484068 191.178293 
L 115.589579 199.392848 
L 120.695089 207.074624 
L 125.8006 214.072576 
L 130.906111 220.205591 
L 136.011622 225.25874 
L 141.117133 228.979303 
L 146.222644 231.07258 
L 151.328155 231.19748 
L 156.433665 228.961885 
L 161.539176 223.917798 
L 166.644687 215.55627 
L 171.750198 203.302103 
L 176.855709 186.508337 
L 181.96122 164.450514 
L 187.066731 136.320719 
L 192.172241 101.221406 
L 197.277752 58.158997 
L 202.383263 6.037268 
L 202.959168 -1 
M 6.941429 -1 
L 74.745492 126.661047 
L 90.062024 155.152313 
L 100.273046 173.625647 
L 105.378557 182.555467 
L 110.484068 191.178293 
L 115.589579 199.392848 
L 120.695089 207.074624 
L 125.8006 214.072576 
L 130.906111 220.205591 
L 136.011622 225.25874 
L 141.117133 228.979303 
L 146.222644 231.07258 
L 151.328155 231.19748 
L 156.433665 228.961885 
L 161.539176 223.917798 
L 166.644687 215.55627 
L 171.750198 203.302103 
L 176.855709 186.508337 
L 181.96122 164.450514 
L 187.066731 136.320719 
L 192.172241 101.221406 
L 197.277752 58.158997 
L 202.383263 6.037268 
L 202.959168 -1 
M 6.941429 -1 
L 74.745492 126.661047 
L 90.062024 155.152313 
L 100.273046 173.625647 
L 105.378557 182.555467 
L 110.484068 191.178293 
L 115.589579 199.392848 
L 120.695089 207.074624 
L 125.8006 214.072576 
L 130.906111 220.205591 
L 136.011622 225.25874 
L 141.117133 228.979303 
L 146.222644 231.07258 
L 151.328155 231.19748 
L 156.433665 228.961885 
L 161.539176 223.917798 
L 166.644687 215.55627 
L 171.750198 203.302103 
L 176.855709 186.508337 
L 181.96122 164.450514 
L 187.066731 136.320719 
L 192.172241 101.221406 
L 197.277752 58.158997 
L 202.383263 6.037268 
L 202.959168 -1 
M 6.941429 -1 
L 74.745492 126.661047 
L 90.062024 155.152313 
L 100.273046 173.625647 
L 105.378557 182.555467 
L 110.484068 191.178293 
L 115.589579 199.392848 
L 120.695089 207.074624 
L 125.8006 214.072576 
L 130.906111 220.205591 
L 136.011622 225.25874 
L 141.117133 228.979303 
L 146.222644 231.07258 
L 151.328155 231.19748 
L 156.433665 228.961885 
L 161.539176 223.917798 
L 166.644687 215.55627 
L 171.750198 203.302103 
L 176.855709 186.508337 
L 181.96122 164.450514 
L 187.066731 136.320719 
L 192.172241 101.221406 
L 197.277752 58.158997 
L 202.383263 6.037268 
L 202.959168 -1 
M 6.941429 -1 
L 74.745492 126.661047 
L 90.062024 155.152313 
L 100.273046 173.625647 
L 105.378557 182.555467 
L 110.484068 191.178293 
L 115.589579 199.392848 
L 120.695089 207.074624 
L 125.8006 214.072576 
L 130.906111 220.205591 
L 136.011622 225.25874 
L 141.117133 228.979303 
L 146.222644 231.07258 
L 151.328155 231.19748 
L 156.433665 228.961885 
L 161.539176 223.917798 
L 166.644687 215.55627 
L 171.750198 203.302103 
L 176.855709 186.508337 
L 181.96122 164.450514 
L 187.066731 136.320719 
L 192.172241 101.221406 
L 197.277752 58.158997 
L 202.383263 6.037268 
L 202.959168 -1 
M 6.941429 -1 
L 74.745492 126.661047 
L 90.062024 155.152313 
L 100.273046 173.625647 
L 105.378557 182.555467 
L 110.484068 191.178293 
L 115.589579 199.392848 
L 120.695089 207.074624 
L 125.8006 214.072576 
L 130.906111 220.205591 
L 136.011622 225.25874 
L 141.117133 228.979303 
L 146.222644 231.07258 
L 151.328155 231.19748 
L 156.433665 228.961885 
L 161.539176 223.917798 
L 166.644687 215.55627 
L 171.750198 203.302103 
L 176.855709 186.508337 
L 181.96122 164.450514 
L 187.066731 136.320719 
L 192.172241 101.221406 
L 197.277752 58.158997 
L 202.383263 6.037268 
L 202.959168 -1 
M 6.941429 -1 
L 74.745492 126.661047 
L 90.062024 155.152313 
L 100.273046 173.625647 
L 105.378557 182.555467 
L 110.484068 191.178293 
L 115.589579 199.392848 
L 120.695089 207.074624 
L 125.8006 214.072576 
L 130.906111 220.205591 
L 136.011622 225.25874 
L 141.117133 228.979303 
L 146.222644 231.07258 
L 151.328155 231.19748 
L 156.433665 228.961885 
L 161.539176 223.917798 
L 166.644687 215.55627 
L 171.750198 203.302103 
L 176.855709 186.508337 
L 181.96122 164.450514 
L 187.066731 136.320719 
L 192.172241 101.221406 
L 197.277752 58.158997 
L 202.383263 6.037268 
L 202.959168 -1 
M 6.941429 -1 
L 74.745492 126.661047 
L 90.062024 155.152313 
L 100.273046 173.625647 
L 105.378557 182.555467 
L 110.484068 191.178293 
L 115.589579 199.392848 
L 120.695089 207.074624 
L 125.8006 214.072576 
L 130.906111 220.205591 
L 136.011622 225.25874 
L 141.117133 228.979303 
L 146.222644 231.07258 
L 151.328155 231.19748 
L 156.433665 228.961885 
L 161.539176 223.917798 
L 166.644687 215.55627 
L 171.750198 203.302103 
L 176.855709 186.508337 
L 181.96122 164.450514 
L 187.066731 136.320719 
L 192.172241 101.221406 
L 197.277752 58.158997 
L 202.383263 6.037268 
L 202.959168 -1 
M 6.941429 -1 
L 74.745492 126.661047 
L 90.062024 155.152313 
L 100.273046 173.625647 
L 105.378557 182.555467 
L 110.484068 191.178293 
L 115.589579 199.392848 
L 120.695089 207.074624 
L 125.8006 214.072576 
L 130.906111 220.205591 
L 136.011622 225.25874 
L 141.117133 228.979303 
L 146.222644 231.07258 
L 151.328155 231.19748 
L 156.433665 228.961885 
L 161.539176 223.917798 
L 166.644687 215.55627 
L 171.750198 203.302103 
L 176.855709 186.508337 
L 181.96122 164.450514 
L 187.066731 136.320719 
L 192.172241 101.221406 
L 197.277752 58.158997 
L 202.383263 6.037268 
L 202.959168 -1 
M 6.941429 -1 
L 74.745492 126.661047 
L 90.062024 155.152313 
L 100.273046 173.625647 
L 105.378557 182.555467 
L 110.484068 191.178293 
L 115.589579 199.392848 
L 120.695089 207.074624 
L 125.8006 214.072576 
L 130.906111 220.205591 
L 136.011622 225.25874 
L 141.117133 228.979303 
L 146.222644 231.07258 
L 151.328155 231.19748 
L 156.433665 228.961885 
L 161.539176 223.917798 
L 166.644687 215.55627 
L 171.750198 203.302103 
L 176.855709 186.508337 
L 181.96122 164.450514 
L 187.066731 136.320719 
L 192.172241 101.221406 
L 197.277752 58.158997 
L 202.383263 6.037268 
L 202.959168 -1 
M 6.941429 -1 
L 74.745492 126.661047 
L 90.062024 155.152313 
L 100.273046 173.625647 
L 105.378557 182.555467 
L 110.484068 191.178293 
L 115.589579 199.392848 
L 120.695089 207.074624 
L 125.8006 214.072576 
L 130.906111 220.205591 
L 136.011622 225.25874 
L 141.117133 228.979303 
L 146.222644 231.07258 
L 151.328155 231.19748 
L 156.433665 228.961885 
L 161.539176 223.917798 
L 166.644687 215.55627 
L 171.750198 203.302103 
L 176.855709 186.508337 
L 181.96122 164.450514 
L 187.066731 136.320719 
L 192.172241 101.221406 
L 197.277752 58.158997 
L 202.383263 6.037268 
L 202.959168 -1 
M 6.941429 -1 
L 74.745492 126.661047 
L 90.062024 155.152313 
L 100.273046 173.625647 
L 105.378557 182.555467 
L 110.484068 191.178293 
L 115.589579 199.392848 
L 120.695089 207.074624 
L 125.8006 214.072576 
L 130.906111 220.205591 
L 136.011622 225.25874 
L 141.117133 228.979303 
L 146.222644 231.07258 
L 151.328155 231.19748 
L 156.433665 228.961885 
L 161.539176 223.917798 
L 166.644687 215.55627 
L 171.750198 203.302103 
L 176.855709 186.508337 
L 181.96122 164.450514 
L 187.066731 136.320719 
L 192.172241 101.221406 
L 197.277752 58.158997 
L 202.383263 6.037268 
L 202.959168 -1 
M 6.941429 -1 
L 74.745492 126.661047 
L 90.062024 155.152313 
L 100.273046 173.625647 
L 105.378557 182.555467 
L 110.484068 191.178293 
L 115.589579 199.392848 
L 120.695089 207.074624 
L 125.8006 214.072576 
L 130.906111 220.205591 
L 136.011622 225.25874 
L 141.117133 228.979303 
L 146.222644 231.07258 
L 151.328155 231.19748 
L 156.433665 228.961885 
L 161.539176 223.917798 
L 166.644687 215.55627 
L 171.750198 203.302103 
L 176.855709 186.508337 
L 181.96122 164.450514 
L 187.066731 136.320719 
L 192.172241 101.221406 
L 197.277752 58.158997 
L 202.383263 6.037268 
L 202.959168 -1 
M 6.941429 -1 
L 74.745492 126.661047 
L 90.062024 155.152313 
L 100.273046 173.625647 
L 105.378557 182.555467 
L 110.484068 191.178293 
L 115.589579 199.392848 
L 120.695089 207.074624 
L 125.8006 214.072576 
L 130.906111 220.205591 
L 136.011622 225.25874 
L 141.117133 228.979303 
L 146.222644 231.07258 
L 151.328155 231.19748 
L 156.433665 228.961885 
L 161.539176 223.917798 
L 166.644687 215.55627 
L 171.750198 203.302103 
L 176.855709 186.508337 
L 181.96122 164.450514 
L 187.066731 136.320719 
L 192.172241 101.221406 
L 197.277752 58.158997 
L 202.383263 6.037268 
L 202.959168 -1 
M 6.941429 -1 
L 74.745492 126.661047 
L 90.062024 155.152313 
L 100.273046 173.625647 
L 105.378557 182.555467 
L 110.484068 191.178293 
L 115.589579 199.392848 
L 120.695089 207.074624 
L 125.8006 214.072576 
L 130.906111 220.205591 
L 136.011622 225.25874 
L 141.117133 228.979303 
L 146.222644 231.07258 
L 151.328155 231.19748 
L 156.433665 228.961885 
L 161.539176 223.917798 
L 166.644687 215.55627 
L 171.750198 203.302103 
L 176.855709 186.508337 
L 181.96122 164.450514 
L 187.066731 136.320719 
L 192.172241 101.221406 
L 197.277752 58.158997 
L 202.383263 6.037268 
L 202.959168 -1 
M 6.941429 -1 
L 74.745492 126.661047 
L 90.062024 155.152313 
L 100.273046 173.625647 
L 105.378557 182.555467 
L 110.484068 191.178293 
L 115.589579 199.392848 
L 120.695089 207.074624 
L 125.8006 214.072576 
L 130.906111 220.205591 
L 136.011622 225.25874 
L 141.117133 228.979303 
L 146.222644 231.07258 
L 151.328155 231.19748 
L 156.433665 228.961885 
L 161.539176 223.917798 
L 166.644687 215.55627 
L 171.750198 203.302103 
L 176.855709 186.508337 
L 181.96122 164.450514 
L 187.066731 136.320719 
L 192.172241 101.221406 
L 197.277752 58.158997 
L 202.383263 6.037268 
L 202.959168 -1 
M 6.941429 -1 
L 74.745492 126.661047 
L 90.062024 155.152313 
L 100.273046 173.625647 
L 105.378557 182.555467 
L 110.484068 191.178293 
L 115.589579 199.392848 
L 120.695089 207.074624 
L 125.8006 214.072576 
L 130.906111 220.205591 
L 136.011622 225.25874 
L 141.117133 228.979303 
L 146.222644 231.07258 
L 151.328155 231.19748 
L 156.433665 228.961885 
L 161.539176 223.917798 
L 166.644687 215.55627 
L 171.750198 203.302103 
L 176.855709 186.508337 
L 181.96122 164.450514 
L 187.066731 136.320719 
L 192.172241 101.221406 
L 197.277752 58.158997 
L 202.383263 6.037268 
L 202.959168 -1 
M 6.941429 -1 
L 74.745492 126.661047 
L 90.062024 155.152313 
L 100.273046 173.625647 
L 105.378557 182.555467 
L 110.484068 191.178293 
L 115.589579 199.392848 
L 120.695089 207.074624 
L 125.8006 214.072576 
L 130.906111 220.205591 
L 136.011622 225.25874 
L 141.117133 228.979303 
L 146.222644 231.07258 
L 151.328155 231.19748 
L 156.433665 228.961885 
L 161.539176 223.917798 
L 166.644687 215.55627 
L 171.750198 203.302103 
L 176.855709 186.508337 
L 181.96122 164.450514 
L 187.066731 136.320719 
L 192.172241 101.221406 
L 197.277752 58.158997 
L 202.383263 6.037268 
L 202.959168 -1 
M 6.941429 -1 
L 74.745492 126.661047 
L 90.062024 155.152313 
L 100.273046 173.625647 
L 105.378557 182.555467 
L 110.484068 191.178293 
L 115.589579 199.392848 
L 120.695089 207.074624 
L 125.8006 214.072576 
L 130.906111 220.205591 
L 136.011622 225.25874 
L 141.117133 228.979303 
L 146.222644 231.07258 
L 151.328155 231.19748 
L 156.433665 228.961885 
L 161.539176 223.917798 
L 166.644687 215.55627 
L 171.750198 203.302103 
L 176.855709 186.508337 
L 181.96122 164.450514 
L 187.066731 136.320719 
L 192.172241 101.221406 
L 197.277752 58.158997 
L 202.383263 6.037268 
L 202.959168 -1 
M 6.941429 -1 
L 74.745492 126.661047 
L 90.062024 155.152313 
L 100.273046 173.625647 
L 105.378557 182.555467 
L 110.484068 191.178293 
L 115.589579 199.392848 
L 120.695089 207.074624 
L 125.8006 214.072576 
L 130.906111 220.205591 
L 136.011622 225.25874 
L 141.117133 228.979303 
L 146.222644 231.07258 
L 151.328155 231.19748 
L 156.433665 228.961885 
L 161.539176 223.917798 
L 166.644687 215.55627 
L 171.750198 203.302103 
L 176.855709 186.508337 
L 181.96122 164.450514 
L 187.066731 136.320719 
L 192.172241 101.221406 
L 197.277752 58.158997 
L 202.383263 6.037268 
L 202.959168 -1 
M 6.941429 -1 
L 74.745492 126.661047 
L 90.062024 155.152313 
L 100.273046 173.625647 
L 105.378557 182.555467 
L 110.484068 191.178293 
L 115.589579 199.392848 
L 120.695089 207.074624 
L 125.8006 214.072576 
L 130.906111 220.205591 
L 136.011622 225.25874 
L 141.117133 228.979303 
L 146.222644 231.07258 
L 151.328155 231.19748 
L 156.433665 228.961885 
L 161.539176 223.917798 
L 166.644687 215.55627 
L 171.750198 203.302103 
L 176.855709 186.508337 
L 181.96122 164.450514 
L 187.066731 136.320719 
L 192.172241 101.221406 
L 197.277752 58.158997 
L 202.383263 6.037268 
L 202.959168 -1 
M 6.941429 -1 
L 74.745492 126.661047 
L 90.062024 155.152313 
L 100.273046 173.625647 
L 105.378557 182.555467 
L 110.484068 191.178293 
L 115.589579 199.392848 
L 120.695089 207.074624 
L 125.8006 214.072576 
L 130.906111 220.205591 
L 136.011622 225.25874 
L 141.117133 228.979303 
L 146.222644 231.07258 
L 151.328155 231.19748 
L 156.433665 228.961885 
L 161.539176 223.917798 
L 166.644687 215.55627 
L 171.750198 203.302103 
L 176.855709 186.508337 
L 181.96122 164.450514 
L 187.066731 136.320719 
L 192.172241 101.221406 
L 197.277752 58.158997 
L 202.383263 6.037268 
L 202.959168 -1 
M 6.941429 -1 
L 74.745492 126.661047 
L 90.062024 155.152313 
L 100.273046 173.625647 
L 105.378557 182.555467 
L 110.484068 191.178293 
L 115.589579 199.392848 
L 120.695089 207.074624 
L 125.8006 214.072576 
L 130.906111 220.205591 
L 136.011622 225.25874 
L 141.117133 228.979303 
L 146.222644 231.07258 
L 151.328155 231.19748 
L 156.433665 228.961885 
L 161.539176 223.917798 
L 166.644687 215.55627 
L 171.750198 203.302103 
L 176.855709 186.508337 
L 181.96122 164.450514 
L 187.066731 136.320719 
L 192.172241 101.221406 
L 197.277752 58.158997 
L 202.383263 6.037268 
L 202.959168 -1 
M 6.941429 -1 
L 74.745492 126.661047 
L 90.062024 155.152313 
L 100.273046 173.625647 
L 105.378557 182.555467 
L 110.484068 191.178293 
L 115.589579 199.392848 
L 120.695089 207.074624 
L 125.8006 214.072576 
L 130.906111 220.205591 
L 136.011622 225.25874 
L 141.117133 228.979303 
L 146.222644 231.07258 
L 151.328155 231.19748 
L 156.433665 228.961885 
L 161.539176 223.917798 
L 166.644687 215.55627 
L 171.750198 203.302103 
L 176.855709 186.508337 
L 181.96122 164.450514 
L 187.066731 136.320719 
L 192.172241 101.221406 
L 197.277752 58.158997 
L 202.383263 6.037268 
L 202.959168 -1 
M 6.941429 -1 
L 74.745492 126.661047 
L 90.062024 155.152313 
L 100.273046 173.625647 
L 105.378557 182.555467 
L 110.484068 191.178293 
L 115.589579 199.392848 
L 120.695089 207.074624 
L 125.8006 214.072576 
L 130.906111 220.205591 
L 136.011622 225.25874 
L 141.117133 228.979303 
L 146.222644 231.07258 
L 151.328155 231.19748 
L 156.433665 228.961885 
L 161.539176 223.917798 
L 166.644687 215.55627 
L 171.750198 203.302103 
L 176.855709 186.508337 
L 181.96122 164.450514 
L 187.066731 136.320719 
L 192.172241 101.221406 
L 197.277752 58.158997 
L 202.383263 6.037268 
L 202.959168 -1 
M 6.941429 -1 
L 74.745492 126.661047 
L 90.062024 155.152313 
L 100.273046 173.625647 
L 105.378557 182.555467 
L 110.484068 191.178293 
L 115.589579 199.392848 
L 120.695089 207.074624 
L 125.8006 214.072576 
L 130.906111 220.205591 
L 136.011622 225.25874 
L 141.117133 228.979303 
L 146.222644 231.07258 
L 151.328155 231.19748 
L 156.433665 228.961885 
L 161.539176 223.917798 
L 166.644687 215.55627 
L 171.750198 203.302103 
L 176.855709 186.508337 
L 181.96122 164.450514 
L 187.066731 136.320719 
L 192.172241 101.221406 
L 197.277752 58.158997 
L 202.383263 6.037268 
L 202.959168 -1 
M 6.941429 -1 
L 74.745492 126.661047 
L 90.062024 155.152313 
L 100.273046 173.625647 
L 105.378557 182.555467 
L 110.484068 191.178293 
L 115.589579 199.392848 
L 120.695089 207.074624 
L 125.8006 214.072576 
L 130.906111 220.205591 
L 136.011622 225.25874 
L 141.117133 228.979303 
L 146.222644 231.07258 
L 151.328155 231.19748 
L 156.433665 228.961885 
L 161.539176 223.917798 
L 166.644687 215.55627 
L 171.750198 203.302103 
L 176.855709 186.508337 
L 181.96122 164.450514 
L 187.066731 136.320719 
L 192.172241 101.221406 
L 197.277752 58.158997 
L 202.383263 6.037268 
L 202.959168 -1 
M 6.941429 -1 
L 74.745492 126.661047 
L 90.062024 155.152313 
L 100.273046 173.625647 
L 105.378557 182.555467 
L 110.484068 191.178293 
L 115.589579 199.392848 
L 120.695089 207.074624 
L 125.8006 214.072576 
L 130.906111 220.205591 
L 136.011622 225.25874 
L 141.117133 228.979303 
L 146.222644 231.07258 
L 151.328155 231.19748 
L 156.433665 228.961885 
L 161.539176 223.917798 
L 166.644687 215.55627 
L 171.750198 203.302103 
L 176.855709 186.508337 
L 181.96122 164.450514 
L 187.066731 136.320719 
L 192.172241 101.221406 
L 197.277752 58.158997 
L 202.383263 6.037268 
L 202.959168 -1 
M 6.941429 -1 
L 74.745492 126.661047 
L 90.062024 155.152313 
L 100.273046 173.625647 
L 105.378557 182.555467 
L 110.484068 191.178293 
L 115.589579 199.392848 
L 120.695089 207.074624 
L 125.8006 214.072576 
L 130.906111 220.205591 
L 136.011622 225.25874 
L 141.117133 228.979303 
L 146.222644 231.07258 
L 151.328155 231.19748 
L 156.433665 228.961885 
L 161.539176 223.917798 
L 166.644687 215.55627 
L 171.750198 203.302103 
L 176.855709 186.508337 
L 181.96122 164.450514 
L 187.066731 136.320719 
L 192.172241 101.221406 
L 197.277752 58.158997 
L 202.383263 6.037268 
L 202.959168 -1 
M 6.941429 -1 
L 74.745492 126.661047 
L 90.062024 155.152313 
L 100.273046 173.625647 
L 105.378557 182.555467 
L 110.484068 191.178293 
L 115.589579 199.392848 
L 120.695089 207.074624 
L 125.8006 214.072576 
L 130.906111 220.205591 
L 136.011622 225.25874 
L 141.117133 228.979303 
L 146.222644 231.07258 
L 151.328155 231.19748 
L 156.433665 228.961885 
L 161.539176 223.917798 
L 166.644687 215.55627 
L 171.750198 203.302103 
L 176.855709 186.508337 
L 181.96122 164.450514 
L 187.066731 136.320719 
L 192.172241 101.221406 
L 197.277752 58.158997 
L 202.383263 6.037268 
L 202.959168 -1 
M 6.941429 -1 
L 74.745492 126.661047 
L 90.062024 155.152313 
L 100.273046 173.625647 
L 105.378557 182.555467 
L 110.484068 191.178293 
L 115.589579 199.392848 
L 120.695089 207.074624 
L 125.8006 214.072576 
L 130.906111 220.205591 
L 136.011622 225.25874 
L 141.117133 228.979303 
L 146.222644 231.07258 
L 151.328155 231.19748 
L 156.433665 228.961885 
L 161.539176 223.917798 
L 166.644687 215.55627 
L 171.750198 203.302103 
L 176.855709 186.508337 
L 181.96122 164.450514 
L 187.066731 136.320719 
L 192.172241 101.221406 
L 197.277752 58.158997 
L 202.383263 6.037268 
L 202.959168 -1 
M 6.941429 -1 
L 74.745492 126.661047 
L 90.062024 155.152313 
L 100.273046 173.625647 
L 105.378557 182.555467 
L 110.484068 191.178293 
L 115.589579 199.392848 
L 120.695089 207.074624 
L 125.8006 214.072576 
L 130.906111 220.205591 
L 136.011622 225.25874 
L 141.117133 228.979303 
L 146.222644 231.07258 
L 151.328155 231.19748 
L 156.433665 228.961885 
L 161.539176 223.917798 
L 166.644687 215.55627 
L 171.750198 203.302103 
L 176.855709 186.508337 
L 181.96122 164.450514 
L 187.066731 136.320719 
L 192.172241 101.221406 
L 197.277752 58.158997 
L 202.383263 6.037268 
L 202.959168 -1 
M 6.941429 -1 
L 74.745492 126.661047 
L 90.062024 155.152313 
L 100.273046 173.625647 
L 105.378557 182.555467 
L 110.484068 191.178293 
L 115.589579 199.392848 
L 120.695089 207.074624 
L 125.8006 214.072576 
L 130.906111 220.205591 
L 136.011622 225.25874 
L 141.117133 228.979303 
L 146.222644 231.07258 
L 151.328155 231.19748 
L 156.433665 228.961885 
L 161.539176 223.917798 
L 166.644687 215.55627 
L 171.750198 203.302103 
L 176.855709 186.508337 
L 181.96122 164.450514 
L 187.066731 136.320719 
L 192.172241 101.221406 
L 197.277752 58.158997 
L 202.383263 6.037268 
L 202.959168 -1 
M 6.941429 -1 
L 74.745492 126.661047 
L 90.062024 155.152313 
L 100.273046 173.625647 
L 105.378557 182.555467 
L 110.484068 191.178293 
L 115.589579 199.392848 
L 120.695089 207.074624 
L 125.8006 214.072576 
L 130.906111 220.205591 
L 136.011622 225.25874 
L 141.117133 228.979303 
L 146.222644 231.07258 
L 151.328155 231.19748 
L 156.433665 228.961885 
L 161.539176 223.917798 
L 166.644687 215.55627 
L 171.750198 203.302103 
L 176.855709 186.508337 
L 181.96122 164.450514 
L 187.066731 136.320719 
L 192.172241 101.221406 
L 197.277752 58.158997 
L 202.383263 6.037268 
L 202.959168 -1 
M 6.941429 -1 
L 74.745492 126.661047 
L 90.062024 155.152313 
L 100.273046 173.625647 
L 105.378557 182.555467 
L 110.484068 191.178293 
L 115.589579 199.392848 
L 120.695089 207.074624 
L 125.8006 214.072576 
L 130.906111 220.205591 
L 136.011622 225.25874 
L 141.117133 228.979303 
L 146.222644 231.07258 
L 151.328155 231.19748 
L 156.433665 228.961885 
L 161.539176 223.917798 
L 166.644687 215.55627 
L 171.750198 203.302103 
L 176.855709 186.508337 
L 181.96122 164.450514 
L 187.066731 136.320719 
L 192.172241 101.221406 
L 197.277752 58.158997 
L 202.383263 6.037268 
L 202.959168 -1 
M 6.941429 -1 
L 74.745492 126.661047 
L 90.062024 155.152313 
L 100.273046 173.625647 
L 105.378557 182.555467 
L 110.484068 191.178293 
L 115.589579 199.392848 
L 120.695089 207.074624 
L 125.8006 214.072576 
L 130.906111 220.205591 
L 136.011622 225.25874 
L 141.117133 228.979303 
L 146.222644 231.07258 
L 151.328155 231.19748 
L 156.433665 228.961885 
L 161.539176 223.917798 
L 166.644687 215.55627 
L 171.750198 203.302103 
L 176.855709 186.508337 
L 181.96122 164.450514 
L 187.066731 136.320719 
L 192.172241 101.221406 
L 197.277752 58.158997 
L 202.383263 6.037268 
L 202.959168 -1 
M 6.941429 -1 
L 74.745492 126.661047 
L 90.062024 155.152313 
L 100.273046 173.625647 
L 105.378557 182.555467 
L 110.484068 191.178293 
L 115.589579 199.392848 
L 120.695089 207.074624 
L 125.8006 214.072576 
L 130.906111 220.205591 
L 136.011622 225.25874 
L 141.117133 228.979303 
L 146.222644 231.07258 
L 151.328155 231.19748 
L 156.433665 228.961885 
L 161.539176 223.917798 
L 166.644687 215.55627 
L 171.750198 203.302103 
L 176.855709 186.508337 
L 181.96122 164.450514 
L 187.066731 136.320719 
L 192.172241 101.221406 
L 197.277752 58.158997 
L 202.383263 6.037268 
L 202.959168 -1 
M 6.941429 -1 
L 74.745492 126.661047 
L 90.062024 155.152313 
L 100.273046 173.625647 
L 105.378557 182.555467 
L 110.484068 191.178293 
L 115.589579 199.392848 
L 120.695089 207.074624 
L 125.8006 214.072576 
L 130.906111 220.205591 
L 136.011622 225.25874 
L 141.117133 228.979303 
L 146.222644 231.07258 
L 151.328155 231.19748 
L 156.433665 228.961885 
L 161.539176 223.917798 
L 166.644687 215.55627 
L 171.750198 203.302103 
L 176.855709 186.508337 
L 181.96122 164.450514 
L 187.066731 136.320719 
L 192.172241 101.221406 
L 197.277752 58.158997 
L 202.383263 6.037268 
L 202.959168 -1 
M 6.941429 -1 
L 74.745492 126.661047 
L 90.062024 155.152313 
L 100.273046 173.625647 
L 105.378557 182.555467 
L 110.484068 191.178293 
L 115.589579 199.392848 
L 120.695089 207.074624 
L 125.8006 214.072576 
L 130.906111 220.205591 
L 136.011622 225.25874 
L 141.117133 228.979303 
L 146.222644 231.07258 
L 151.328155 231.19748 
L 156.433665 228.961885 
L 161.539176 223.917798 
L 166.644687 215.55627 
L 171.750198 203.302103 
L 176.855709 186.508337 
L 181.96122 164.450514 
L 187.066731 136.320719 
L 192.172241 101.221406 
L 197.277752 58.158997 
L 202.383263 6.037268 
L 202.959168 -1 
M 6.941429 -1 
L 74.745492 126.661047 
L 90.062024 155.152313 
L 100.273046 173.625647 
L 105.378557 182.555467 
L 110.484068 191.178293 
L 115.589579 199.392848 
L 120.695089 207.074624 
L 125.8006 214.072576 
L 130.906111 220.205591 
L 136.011622 225.25874 
L 141.117133 228.979303 
L 146.222644 231.07258 
L 151.328155 231.19748 
L 156.433665 228.961885 
L 161.539176 223.917798 
L 166.644687 215.55627 
L 171.750198 203.302103 
L 176.855709 186.508337 
L 181.96122 164.450514 
L 187.066731 136.320719 
L 192.172241 101.221406 
L 197.277752 58.158997 
L 202.383263 6.037268 
L 202.959168 -1 
M 6.941429 -1 
L 74.745492 126.661047 
L 90.062024 155.152313 
L 100.273046 173.625647 
L 105.378557 182.555467 
L 110.484068 191.178293 
L 115.589579 199.392848 
L 120.695089 207.074624 
L 125.8006 214.072576 
L 130.906111 220.205591 
L 136.011622 225.25874 
L 141.117133 228.979303 
L 146.222644 231.07258 
L 151.328155 231.19748 
L 156.433665 228.961885 
L 161.539176 223.917798 
L 166.644687 215.55627 
L 171.750198 203.302103 
L 176.855709 186.508337 
L 181.96122 164.450514 
L 187.066731 136.320719 
L 192.172241 101.221406 
L 197.277752 58.158997 
L 202.383263 6.037268 
L 202.959168 -1 
M 6.941429 -1 
L 74.745492 126.661047 
L 90.062024 155.152313 
L 100.273046 173.625647 
L 105.378557 182.555467 
L 110.484068 191.178293 
L 115.589579 199.392848 
L 120.695089 207.074624 
L 125.8006 214.072576 
L 130.906111 220.205591 
L 136.011622 225.25874 
L 141.117133 228.979303 
L 146.222644 231.07258 
L 151.328155 231.19748 
L 156.433665 228.961885 
L 161.539176 223.917798 
L 166.644687 215.55627 
L 171.750198 203.302103 
L 176.855709 186.508337 
L 181.96122 164.450514 
L 187.066731 136.320719 
L 192.172241 101.221406 
L 197.277752 58.158997 
L 202.383263 6.037268 
L 202.959168 -1 
M 6.941429 -1 
L 74.745492 126.661047 
L 90.062024 155.152313 
L 100.273046 173.625647 
L 105.378557 182.555467 
L 110.484068 191.178293 
L 115.589579 199.392848 
L 120.695089 207.074624 
L 125.8006 214.072576 
L 130.906111 220.205591 
L 136.011622 225.25874 
L 141.117133 228.979303 
L 146.222644 231.07258 
L 151.328155 231.19748 
L 156.433665 228.961885 
L 161.539176 223.917798 
L 166.644687 215.55627 
L 171.750198 203.302103 
L 176.855709 186.508337 
L 181.96122 164.450514 
L 187.066731 136.320719 
L 192.172241 101.221406 
L 197.277752 58.158997 
L 202.383263 6.037268 
L 202.959168 -1 
M 6.941429 -1 
L 74.745492 126.661047 
L 90.062024 155.152313 
L 100.273046 173.625647 
L 105.378557 182.555467 
L 110.484068 191.178293 
L 115.589579 199.392848 
L 120.695089 207.074624 
L 125.8006 214.072576 
L 130.906111 220.205591 
L 136.011622 225.25874 
L 141.117133 228.979303 
L 146.222644 231.07258 
L 151.328155 231.19748 
L 156.433665 228.961885 
L 161.539176 223.917798 
L 166.644687 215.55627 
L 171.750198 203.302103 
L 176.855709 186.508337 
L 181.96122 164.450514 
L 187.066731 136.320719 
L 192.172241 101.221406 
L 197.277752 58.158997 
L 202.383263 6.037268 
L 202.959168 -1 
M 6.941429 -1 
L 74.745492 126.661047 
L 90.062024 155.152313 
L 100.273046 173.625647 
L 105.378557 182.555467 
L 110.484068 191.178293 
L 115.589579 199.392848 
L 120.695089 207.074624 
L 125.8006 214.072576 
L 130.906111 220.205591 
L 136.011622 225.25874 
L 141.117133 228.979303 
L 146.222644 231.07258 
L 151.328155 231.19748 
L 156.433665 228.961885 
L 161.539176 223.917798 
L 166.644687 215.55627 
L 171.750198 203.302103 
L 176.855709 186.508337 
L 181.96122 164.450514 
L 187.066731 136.320719 
L 192.172241 101.221406 
L 197.277752 58.158997 
L 202.383263 6.037268 
L 202.959168 -1 
M 6.941429 -1 
L 74.745492 126.661047 
L 90.062024 155.152313 
L 100.273046 173.625647 
L 105.378557 182.555467 
L 110.484068 191.178293 
L 115.589579 199.392848 
L 120.695089 207.074624 
L 125.8006 214.072576 
L 130.906111 220.205591 
L 136.011622 225.25874 
L 141.117133 228.979303 
L 146.222644 231.07258 
L 151.328155 231.19748 
L 156.433665 228.961885 
L 161.539176 223.917798 
L 166.644687 215.55627 
L 171.750198 203.302103 
L 176.855709 186.508337 
L 181.96122 164.450514 
L 187.066731 136.320719 
L 192.172241 101.221406 
L 197.277752 58.158997 
L 202.383263 6.037268 
L 202.959168 -1 
M 6.941429 -1 
L 74.745492 126.661047 
L 90.062024 155.152313 
L 100.273046 173.625647 
L 105.378557 182.555467 
L 110.484068 191.178293 
L 115.589579 199.392848 
L 120.695089 207.074624 
L 125.8006 214.072576 
L 130.906111 220.205591 
L 136.011622 225.25874 
L 141.117133 228.979303 
L 146.222644 231.07258 
L 151.328155 231.19748 
L 156.433665 228.961885 
L 161.539176 223.917798 
L 166.644687 215.55627 
L 171.750198 203.302103 
L 176.855709 186.508337 
L 181.96122 164.450514 
L 187.066731 136.320719 
L 192.172241 101.221406 
L 197.277752 58.158997 
L 202.383263 6.037268 
L 202.959168 -1 
M 6.941429 -1 
L 74.745492 126.661047 
L 90.062024 155.152313 
L 100.273046 173.625647 
L 105.378557 182.555467 
L 110.484068 191.178293 
L 115.589579 199.392848 
L 120.695089 207.074624 
L 125.8006 214.072576 
L 130.906111 220.205591 
L 136.011622 225.25874 
L 141.117133 228.979303 
L 146.222644 231.07258 
L 151.328155 231.19748 
L 156.433665 228.961885 
L 161.539176 223.917798 
L 166.644687 215.55627 
L 171.750198 203.302103 
L 176.855709 186.508337 
L 181.96122 164.450514 
L 187.066731 136.320719 
L 192.172241 101.221406 
L 197.277752 58.158997 
L 202.383263 6.037268 
L 202.959168 -1 
M 6.941429 -1 
L 74.745492 126.661047 
L 90.062024 155.152313 
L 100.273046 173.625647 
L 105.378557 182.555467 
L 110.484068 191.178293 
L 115.589579 199.392848 
L 120.695089 207.074624 
L 125.8006 214.072576 
L 130.906111 220.205591 
L 136.011622 225.25874 
L 141.117133 228.979303 
L 146.222644 231.07258 
L 151.328155 231.19748 
L 156.433665 228.961885 
L 161.539176 223.917798 
L 166.644687 215.55627 
L 171.750198 203.302103 
L 176.855709 186.508337 
L 181.96122 164.450514 
L 187.066731 136.320719 
L 192.172241 101.221406 
L 197.277752 58.158997 
L 202.383263 6.037268 
L 202.959168 -1 
M 6.941429 -1 
L 74.745492 126.661047 
L 90.062024 155.152313 
L 100.273046 173.625647 
L 105.378557 182.555467 
L 110.484068 191.178293 
L 115.589579 199.392848 
L 120.695089 207.074624 
L 125.8006 214.072576 
L 130.906111 220.205591 
L 136.011622 225.25874 
L 141.117133 228.979303 
L 146.222644 231.07258 
L 151.328155 231.19748 
L 156.433665 228.961885 
L 161.539176 223.917798 
L 166.644687 215.55627 
L 171.750198 203.302103 
L 176.855709 186.508337 
L 181.96122 164.450514 
L 187.066731 136.320719 
L 192.172241 101.221406 
L 197.277752 58.158997 
L 202.383263 6.037268 
L 202.959168 -1 
M 6.941429 -1 
L 74.745492 126.661047 
L 90.062024 155.152313 
L 100.273046 173.625647 
L 105.378557 182.555467 
L 110.484068 191.178293 
L 115.589579 199.392848 
L 120.695089 207.074624 
L 125.8006 214.072576 
L 130.906111 220.205591 
L 136.011622 225.25874 
L 141.117133 228.979303 
L 146.222644 231.07258 
L 151.328155 231.19748 
L 156.433665 228.961885 
L 161.539176 223.917798 
L 166.644687 215.55627 
L 171.750198 203.302103 
L 176.855709 186.508337 
L 181.96122 164.450514 
L 187.066731 136.320719 
L 192.172241 101.221406 
L 197.277752 58.158997 
L 202.383263 6.037268 
L 202.959168 -1 
M 6.941429 -1 
L 74.745492 126.661047 
L 90.062024 155.152313 
L 100.273046 173.625647 
L 105.378557 182.555467 
L 110.484068 191.178293 
L 115.589579 199.392848 
L 120.695089 207.074624 
L 125.8006 214.072576 
L 130.906111 220.205591 
L 136.011622 225.25874 
L 141.117133 228.979303 
L 146.222644 231.07258 
L 151.328155 231.19748 
L 156.433665 228.961885 
L 161.539176 223.917798 
L 166.644687 215.55627 
L 171.750198 203.302103 
L 176.855709 186.508337 
L 181.96122 164.450514 
L 187.066731 136.320719 
L 192.172241 101.221406 
L 197.277752 58.158997 
L 202.383263 6.037268 
L 202.959168 -1 
M 6.941429 -1 
L 74.745492 126.661047 
L 90.062024 155.152313 
L 100.273046 173.625647 
L 105.378557 182.555467 
L 110.484068 191.178293 
L 115.589579 199.392848 
L 120.695089 207.074624 
L 125.8006 214.072576 
L 130.906111 220.205591 
L 136.011622 225.25874 
L 141.117133 228.979303 
L 146.222644 231.07258 
L 151.328155 231.19748 
L 156.433665 228.961885 
L 161.539176 223.917798 
L 166.644687 215.55627 
L 171.750198 203.302103 
L 176.855709 186.508337 
L 181.96122 164.450514 
L 187.066731 136.320719 
L 192.172241 101.221406 
L 197.277752 58.158997 
L 202.383263 6.037268 
L 202.959168 -1 
M 6.941429 -1 
L 74.745492 126.661047 
L 90.062024 155.152313 
L 100.273046 173.625647 
L 105.378557 182.555467 
L 110.484068 191.178293 
L 115.589579 199.392848 
L 120.695089 207.074624 
L 125.8006 214.072576 
L 130.906111 220.205591 
L 136.011622 225.25874 
L 141.117133 228.979303 
L 146.222644 231.07258 
L 151.328155 231.19748 
L 156.433665 228.961885 
L 161.539176 223.917798 
L 166.644687 215.55627 
L 171.750198 203.302103 
L 176.855709 186.508337 
L 181.96122 164.450514 
L 187.066731 136.320719 
L 192.172241 101.221406 
L 197.277752 58.158997 
L 202.383263 6.037268 
L 202.959168 -1 
M 6.941429 -1 
L 74.745492 126.661047 
L 90.062024 155.152313 
L 100.273046 173.625647 
L 105.378557 182.555467 
L 110.484068 191.178293 
L 115.589579 199.392848 
L 120.695089 207.074624 
L 125.8006 214.072576 
L 130.906111 220.205591 
L 136.011622 225.25874 
L 141.117133 228.979303 
L 146.222644 231.07258 
L 151.328155 231.19748 
L 156.433665 228.961885 
L 161.539176 223.917798 
L 166.644687 215.55627 
L 171.750198 203.302103 
L 176.855709 186.508337 
L 181.96122 164.450514 
L 187.066731 136.320719 
L 192.172241 101.221406 
L 197.277752 58.158997 
L 202.383263 6.037268 
L 202.959168 -1 
M 6.941429 -1 
L 74.745492 126.661047 
L 90.062024 155.152313 
L 100.273046 173.625647 
L 105.378557 182.555467 
L 110.484068 191.178293 
L 115.589579 199.392848 
L 120.695089 207.074624 
L 125.8006 214.072576 
L 130.906111 220.205591 
L 136.011622 225.25874 
L 141.117133 228.979303 
L 146.222644 231.07258 
L 151.328155 231.19748 
L 156.433665 228.961885 
L 161.539176 223.917798 
L 166.644687 215.55627 
L 171.750198 203.302103 
L 176.855709 186.508337 
L 181.96122 164.450514 
L 187.066731 136.320719 
L 192.172241 101.221406 
L 197.277752 58.158997 
L 202.383263 6.037268 
L 202.959168 -1 
M 6.941429 -1 
L 74.745492 126.661047 
L 90.062024 155.152313 
L 100.273046 173.625647 
L 105.378557 182.555467 
L 110.484068 191.178293 
L 115.589579 199.392848 
L 120.695089 207.074624 
L 125.8006 214.072576 
L 130.906111 220.205591 
L 136.011622 225.25874 
L 141.117133 228.979303 
L 146.222644 231.07258 
L 151.328155 231.19748 
L 156.433665 228.961885 
L 161.539176 223.917798 
L 166.644687 215.55627 
L 171.750198 203.302103 
L 176.855709 186.508337 
L 181.96122 164.450514 
L 187.066731 136.320719 
L 192.172241 101.221406 
L 197.277752 58.158997 
L 202.383263 6.037268 
L 202.959168 -1 
M 6.941429 -1 
L 74.745492 126.661047 
L 90.062024 155.152313 
L 100.273046 173.625647 
L 105.378557 182.555467 
L 110.484068 191.178293 
L 115.589579 199.392848 
L 120.695089 207.074624 
L 125.8006 214.072576 
L 130.906111 220.205591 
L 136.011622 225.25874 
L 141.117133 228.979303 
L 146.222644 231.07258 
L 151.328155 231.19748 
L 156.433665 228.961885 
L 161.539176 223.917798 
L 166.644687 215.55627 
L 171.750198 203.302103 
L 176.855709 186.508337 
L 181.96122 164.450514 
L 187.066731 136.320719 
L 192.172241 101.221406 
L 197.277752 58.158997 
L 202.383263 6.037268 
L 202.959168 -1 
M 6.941429 -1 
L 74.745492 126.661047 
L 90.062024 155.152313 
L 100.273046 173.625647 
L 105.378557 182.555467 
L 110.484068 191.178293 
L 115.589579 199.392848 
L 120.695089 207.074624 
L 125.8006 214.072576 
L 130.906111 220.205591 
L 136.011622 225.25874 
L 141.117133 228.979303 
L 146.222644 231.07258 
L 151.328155 231.19748 
L 156.433665 228.961885 
L 161.539176 223.917798 
L 166.644687 215.55627 
L 171.750198 203.302103 
L 176.855709 186.508337 
L 181.96122 164.450514 
L 187.066731 136.320719 
L 192.172241 101.221406 
L 197.277752 58.158997 
L 202.383263 6.037268 
L 202.959168 -1 
M 6.941429 -1 
L 74.745492 126.661047 
L 90.062024 155.152313 
L 100.273046 173.625647 
L 105.378557 182.555467 
L 110.484068 191.178293 
L 115.589579 199.392848 
L 120.695089 207.074624 
L 125.8006 214.072576 
L 130.906111 220.205591 
L 136.011622 225.25874 
L 141.117133 228.979303 
L 146.222644 231.07258 
L 151.328155 231.19748 
L 156.433665 228.961885 
L 161.539176 223.917798 
L 166.644687 215.55627 
L 171.750198 203.302103 
L 176.855709 186.508337 
L 181.96122 164.450514 
L 187.066731 136.320719 
L 192.172241 101.221406 
L 197.277752 58.158997 
L 202.383263 6.037268 
L 202.959168 -1 
M 6.941429 -1 
L 74.745492 126.661047 
L 90.062024 155.152313 
L 100.273046 173.625647 
L 105.378557 182.555467 
L 110.484068 191.178293 
L 115.589579 199.392848 
L 120.695089 207.074624 
L 125.8006 214.072576 
L 130.906111 220.205591 
L 136.011622 225.25874 
L 141.117133 228.979303 
L 146.222644 231.07258 
L 151.328155 231.19748 
L 156.433665 228.961885 
L 161.539176 223.917798 
L 166.644687 215.55627 
L 171.750198 203.302103 
L 176.855709 186.508337 
L 181.96122 164.450514 
L 187.066731 136.320719 
L 192.172241 101.221406 
L 197.277752 58.158997 
L 202.383263 6.037268 
L 202.959168 -1 
M 6.941429 -1 
L 74.745492 126.661047 
L 90.062024 155.152313 
L 100.273046 173.625647 
L 105.378557 182.555467 
L 110.484068 191.178293 
L 115.589579 199.392848 
L 120.695089 207.074624 
L 125.8006 214.072576 
L 130.906111 220.205591 
L 136.011622 225.25874 
L 141.117133 228.979303 
L 146.222644 231.07258 
L 151.328155 231.19748 
L 156.433665 228.961885 
L 161.539176 223.917798 
L 166.644687 215.55627 
L 171.750198 203.302103 
L 176.855709 186.508337 
L 181.96122 164.450514 
L 187.066731 136.320719 
L 192.172241 101.221406 
L 197.277752 58.158997 
L 202.383263 6.037268 
L 202.959168 -1 
M 6.941429 -1 
L 74.745492 126.661047 
L 90.062024 155.152313 
L 100.273046 173.625647 
L 105.378557 182.555467 
L 110.484068 191.178293 
L 115.589579 199.392848 
L 120.695089 207.074624 
L 125.8006 214.072576 
L 130.906111 220.205591 
L 136.011622 225.25874 
L 141.117133 228.979303 
L 146.222644 231.07258 
L 151.328155 231.19748 
L 156.433665 228.961885 
L 161.539176 223.917798 
L 166.644687 215.55627 
L 171.750198 203.302103 
L 176.855709 186.508337 
L 181.96122 164.450514 
L 187.066731 136.320719 
L 192.172241 101.221406 
L 197.277752 58.158997 
L 202.383263 6.037268 
L 202.959168 -1 
M 6.941429 -1 
L 74.745492 126.661047 
L 90.062024 155.152313 
L 100.273046 173.625647 
L 105.378557 182.555467 
L 110.484068 191.178293 
L 115.589579 199.392848 
L 120.695089 207.074624 
L 125.8006 214.072576 
L 130.906111 220.205591 
L 136.011622 225.25874 
L 141.117133 228.979303 
L 146.222644 231.07258 
L 151.328155 231.19748 
L 156.433665 228.961885 
L 161.539176 223.917798 
L 166.644687 215.55627 
L 171.750198 203.302103 
L 176.855709 186.508337 
L 181.96122 164.450514 
L 187.066731 136.320719 
L 192.172241 101.221406 
L 197.277752 58.158997 
L 202.383263 6.037268 
L 202.959168 -1 
M 6.941429 -1 
L 74.745492 126.661047 
L 90.062024 155.152313 
L 100.273046 173.625647 
L 105.378557 182.555467 
L 110.484068 191.178293 
L 115.589579 199.392848 
L 120.695089 207.074624 
L 125.8006 214.072576 
L 130.906111 220.205591 
L 136.011622 225.25874 
L 141.117133 228.979303 
L 146.222644 231.07258 
L 151.328155 231.19748 
L 156.433665 228.961885 
L 161.539176 223.917798 
L 166.644687 215.55627 
L 171.750198 203.302103 
L 176.855709 186.508337 
L 181.96122 164.450514 
L 187.066731 136.320719 
L 192.172241 101.221406 
L 197.277752 58.158997 
L 202.383263 6.037268 
L 202.959168 -1 
M 6.941429 -1 
L 74.745492 126.661047 
L 90.062024 155.152313 
L 100.273046 173.625647 
L 105.378557 182.555467 
L 110.484068 191.178293 
L 115.589579 199.392848 
L 120.695089 207.074624 
L 125.8006 214.072576 
L 130.906111 220.205591 
L 136.011622 225.25874 
L 141.117133 228.979303 
L 146.222644 231.07258 
L 151.328155 231.19748 
L 156.433665 228.961885 
L 161.539176 223.917798 
L 166.644687 215.55627 
L 171.750198 203.302103 
L 176.855709 186.508337 
L 181.96122 164.450514 
L 187.066731 136.320719 
L 192.172241 101.221406 
L 197.277752 58.158997 
L 202.383263 6.037268 
L 202.959168 -1 
M 6.941429 -1 
L 74.745492 126.661047 
L 90.062024 155.152313 
L 100.273046 173.625647 
L 105.378557 182.555467 
L 110.484068 191.178293 
L 115.589579 199.392848 
L 120.695089 207.074624 
L 125.8006 214.072576 
L 130.906111 220.205591 
L 136.011622 225.25874 
L 141.117133 228.979303 
L 146.222644 231.07258 
L 151.328155 231.19748 
L 156.433665 228.961885 
L 161.539176 223.917798 
L 166.644687 215.55627 
L 171.750198 203.302103 
L 176.855709 186.508337 
L 181.96122 164.450514 
L 187.066731 136.320719 
L 192.172241 101.221406 
L 197.277752 58.158997 
L 202.383263 6.037268 
L 202.959168 -1 
M 6.941429 -1 
L 74.745492 126.661047 
L 90.062024 155.152313 
L 100.273046 173.625647 
L 105.378557 182.555467 
L 110.484068 191.178293 
L 115.589579 199.392848 
L 120.695089 207.074624 
L 125.8006 214.072576 
L 130.906111 220.205591 
L 136.011622 225.25874 
L 141.117133 228.979303 
L 146.222644 231.07258 
L 151.328155 231.19748 
L 156.433665 228.961885 
L 161.539176 223.917798 
L 166.644687 215.55627 
L 171.750198 203.302103 
L 176.855709 186.508337 
L 181.96122 164.450514 
L 187.066731 136.320719 
L 192.172241 101.221406 
L 197.277752 58.158997 
L 202.383263 6.037268 
L 202.959168 -1 
M 6.941429 -1 
L 74.745492 126.661047 
L 90.062024 155.152313 
L 100.273046 173.625647 
L 105.378557 182.555467 
L 110.484068 191.178293 
L 115.589579 199.392848 
L 120.695089 207.074624 
L 125.8006 214.072576 
L 130.906111 220.205591 
L 136.011622 225.25874 
L 141.117133 228.979303 
L 146.222644 231.07258 
L 151.328155 231.19748 
L 156.433665 228.961885 
L 161.539176 223.917798 
L 166.644687 215.55627 
L 171.750198 203.302103 
L 176.855709 186.508337 
L 181.96122 164.450514 
L 187.066731 136.320719 
L 192.172241 101.221406 
L 197.277752 58.158997 
L 202.383263 6.037268 
L 202.959168 -1 
M 6.941429 -1 
L 74.745492 126.661047 
L 90.062024 155.152313 
L 100.273046 173.625647 
L 105.378557 182.555467 
L 110.484068 191.178293 
L 115.589579 199.392848 
L 120.695089 207.074624 
L 125.8006 214.072576 
L 130.906111 220.205591 
L 136.011622 225.25874 
L 141.117133 228.979303 
L 146.222644 231.07258 
L 151.328155 231.19748 
L 156.433665 228.961885 
L 161.539176 223.917798 
L 166.644687 215.55627 
L 171.750198 203.302103 
L 176.855709 186.508337 
L 181.96122 164.450514 
L 187.066731 136.320719 
L 192.172241 101.221406 
L 197.277752 58.158997 
L 202.383263 6.037268 
L 202.959168 -1 
M 6.941429 -1 
L 74.745492 126.661047 
L 90.062024 155.152313 
L 100.273046 173.625647 
L 105.378557 182.555467 
L 110.484068 191.178293 
L 115.589579 199.392848 
L 120.695089 207.074624 
L 125.8006 214.072576 
L 130.906111 220.205591 
L 136.011622 225.25874 
L 141.117133 228.979303 
L 146.222644 231.07258 
L 151.328155 231.19748 
L 156.433665 228.961885 
L 161.539176 223.917798 
L 166.644687 215.55627 
L 171.750198 203.302103 
L 176.855709 186.508337 
L 181.96122 164.450514 
L 187.066731 136.320719 
L 192.172241 101.221406 
L 197.277752 58.158997 
L 202.383263 6.037268 
L 202.959168 -1 
M 6.941429 -1 
L 74.745492 126.661047 
L 90.062024 155.152313 
L 100.273046 173.625647 
L 105.378557 182.555467 
L 110.484068 191.178293 
L 115.589579 199.392848 
L 120.695089 207.074624 
L 125.8006 214.072576 
L 130.906111 220.205591 
L 136.011622 225.25874 
L 141.117133 228.979303 
L 146.222644 231.07258 
L 151.328155 231.19748 
L 156.433665 228.961885 
L 161.539176 223.917798 
L 166.644687 215.55627 
L 171.750198 203.302103 
L 176.855709 186.508337 
L 181.96122 164.450514 
L 187.066731 136.320719 
L 192.172241 101.221406 
L 197.277752 58.158997 
L 202.383263 6.037268 
L 202.959168 -1 
M 6.941429 -1 
L 74.745492 126.661047 
L 90.062024 155.152313 
L 100.273046 173.625647 
L 105.378557 182.555467 
L 110.484068 191.178293 
L 115.589579 199.392848 
L 120.695089 207.074624 
L 125.8006 214.072576 
L 130.906111 220.205591 
L 136.011622 225.25874 
L 141.117133 228.979303 
L 146.222644 231.07258 
L 151.328155 231.19748 
L 156.433665 228.961885 
L 161.539176 223.917798 
L 166.644687 215.55627 
L 171.750198 203.302103 
L 176.855709 186.508337 
L 181.96122 164.450514 
L 187.066731 136.320719 
L 192.172241 101.221406 
L 197.277752 58.158997 
L 202.383263 6.037268 
L 202.959168 -1 
M 6.941429 -1 
L 74.745492 126.661047 
L 90.062024 155.152313 
L 100.273046 173.625647 
L 105.378557 182.555467 
L 110.484068 191.178293 
L 115.589579 199.392848 
L 120.695089 207.074624 
L 125.8006 214.072576 
L 130.906111 220.205591 
L 136.011622 225.25874 
L 141.117133 228.979303 
L 146.222644 231.07258 
L 151.328155 231.19748 
L 156.433665 228.961885 
L 161.539176 223.917798 
L 166.644687 215.55627 
L 171.750198 203.302103 
L 176.855709 186.508337 
L 181.96122 164.450514 
L 187.066731 136.320719 
L 192.172241 101.221406 
L 197.277752 58.158997 
L 202.383263 6.037268 
L 202.959168 -1 
M 6.941429 -1 
L 74.745492 126.661047 
L 90.062024 155.152313 
L 100.273046 173.625647 
L 105.378557 182.555467 
L 110.484068 191.178293 
L 115.589579 199.392848 
L 120.695089 207.074624 
L 125.8006 214.072576 
L 130.906111 220.205591 
L 136.011622 225.25874 
L 141.117133 228.979303 
L 146.222644 231.07258 
L 151.328155 231.19748 
L 156.433665 228.961885 
L 161.539176 223.917798 
L 166.644687 215.55627 
L 171.750198 203.302103 
L 176.855709 186.508337 
L 181.96122 164.450514 
L 187.066731 136.320719 
L 192.172241 101.221406 
L 197.277752 58.158997 
L 202.383263 6.037268 
L 202.959168 -1 
M 6.941429 -1 
L 74.745492 126.661047 
L 90.062024 155.152313 
L 100.273046 173.625647 
L 105.378557 182.555467 
L 110.484068 191.178293 
L 115.589579 199.392848 
L 120.695089 207.074624 
L 125.8006 214.072576 
L 130.906111 220.205591 
L 136.011622 225.25874 
L 141.117133 228.979303 
L 146.222644 231.07258 
L 151.328155 231.19748 
L 156.433665 228.961885 
L 161.539176 223.917798 
L 166.644687 215.55627 
L 171.750198 203.302103 
L 176.855709 186.508337 
L 181.96122 164.450514 
L 187.066731 136.320719 
L 192.172241 101.221406 
L 197.277752 58.158997 
L 202.383263 6.037268 
L 202.959168 -1 
M 6.941429 -1 
L 74.745492 126.661047 
L 90.062024 155.152313 
L 100.273046 173.625647 
L 105.378557 182.555467 
L 110.484068 191.178293 
L 115.589579 199.392848 
L 120.695089 207.074624 
L 125.8006 214.072576 
L 130.906111 220.205591 
L 136.011622 225.25874 
L 141.117133 228.979303 
L 146.222644 231.07258 
L 151.328155 231.19748 
L 156.433665 228.961885 
L 161.539176 223.917798 
L 166.644687 215.55627 
L 171.750198 203.302103 
L 176.855709 186.508337 
L 181.96122 164.450514 
L 187.066731 136.320719 
L 192.172241 101.221406 
L 197.277752 58.158997 
L 202.383263 6.037268 
L 202.959168 -1 
M 6.941429 -1 
L 74.745492 126.661047 
L 90.062024 155.152313 
L 100.273046 173.625647 
L 105.378557 182.555467 
L 110.484068 191.178293 
L 115.589579 199.392848 
L 120.695089 207.074624 
L 125.8006 214.072576 
L 130.906111 220.205591 
L 136.011622 225.25874 
L 141.117133 228.979303 
L 146.222644 231.07258 
L 151.328155 231.19748 
L 156.433665 228.961885 
L 161.539176 223.917798 
L 166.644687 215.55627 
L 171.750198 203.302103 
L 176.855709 186.508337 
L 181.96122 164.450514 
L 187.066731 136.320719 
L 192.172241 101.221406 
L 197.277752 58.158997 
L 202.383263 6.037268 
L 202.959168 -1 
M 6.941429 -1 
L 74.745492 126.661047 
L 90.062024 155.152313 
L 100.273046 173.625647 
L 105.378557 182.555467 
L 110.484068 191.178293 
L 115.589579 199.392848 
L 120.695089 207.074624 
L 125.8006 214.072576 
L 130.906111 220.205591 
L 136.011622 225.25874 
L 141.117133 228.979303 
L 146.222644 231.07258 
L 151.328155 231.19748 
L 156.433665 228.961885 
L 161.539176 223.917798 
L 166.644687 215.55627 
L 171.750198 203.302103 
L 176.855709 186.508337 
L 181.96122 164.450514 
L 187.066731 136.320719 
L 192.172241 101.221406 
L 197.277752 58.158997 
L 202.383263 6.037268 
L 202.959168 -1 
M 6.941429 -1 
L 74.745492 126.661047 
L 90.062024 155.152313 
L 100.273046 173.625647 
L 105.378557 182.555467 
L 110.484068 191.178293 
L 115.589579 199.392848 
L 120.695089 207.074624 
L 125.8006 214.072576 
L 130.906111 220.205591 
L 136.011622 225.25874 
L 141.117133 228.979303 
L 146.222644 231.07258 
L 151.328155 231.19748 
L 156.433665 228.961885 
L 161.539176 223.917798 
L 166.644687 215.55627 
L 171.750198 203.302103 
L 176.855709 186.508337 
L 181.96122 164.450514 
L 187.066731 136.320719 
L 192.172241 101.221406 
L 197.277752 58.158997 
L 202.383263 6.037268 
L 202.959168 -1 
M 6.941429 -1 
L 74.745492 126.661047 
L 90.062024 155.152313 
L 100.273046 173.625647 
L 105.378557 182.555467 
L 110.484068 191.178293 
L 115.589579 199.392848 
L 120.695089 207.074624 
L 125.8006 214.072576 
L 130.906111 220.205591 
L 136.011622 225.25874 
L 141.117133 228.979303 
L 146.222644 231.07258 
L 151.328155 231.19748 
L 156.433665 228.961885 
L 161.539176 223.917798 
L 166.644687 215.55627 
L 171.750198 203.302103 
L 176.855709 186.508337 
L 181.96122 164.450514 
L 187.066731 136.320719 
L 192.172241 101.221406 
L 197.277752 58.158997 
L 202.383263 6.037268 
L 202.959168 -1 
M 6.941429 -1 
L 74.745492 126.661047 
L 90.062024 155.152313 
L 100.273046 173.625647 
L 105.378557 182.555467 
L 110.484068 191.178293 
L 115.589579 199.392848 
L 120.695089 207.074624 
L 125.8006 214.072576 
L 130.906111 220.205591 
L 136.011622 225.25874 
L 141.117133 228.979303 
L 146.222644 231.07258 
L 151.328155 231.19748 
L 156.433665 228.961885 
L 161.539176 223.917798 
L 166.644687 215.55627 
L 171.750198 203.302103 
L 176.855709 186.508337 
L 181.96122 164.450514 
L 187.066731 136.320719 
L 192.172241 101.221406 
L 197.277752 58.158997 
L 202.383263 6.037268 
L 202.959168 -1 
M 6.941429 -1 
L 74.745492 126.661047 
L 90.062024 155.152313 
L 100.273046 173.625647 
L 105.378557 182.555467 
L 110.484068 191.178293 
L 115.589579 199.392848 
L 120.695089 207.074624 
L 125.8006 214.072576 
L 130.906111 220.205591 
L 136.011622 225.25874 
L 141.117133 228.979303 
L 146.222644 231.07258 
L 151.328155 231.19748 
L 156.433665 228.961885 
L 161.539176 223.917798 
L 166.644687 215.55627 
L 171.750198 203.302103 
L 176.855709 186.508337 
L 181.96122 164.450514 
L 187.066731 136.320719 
L 192.172241 101.221406 
L 197.277752 58.158997 
L 202.383263 6.037268 
L 202.959168 -1 
M 6.941429 -1 
L 74.745492 126.661047 
L 90.062024 155.152313 
L 100.273046 173.625647 
L 105.378557 182.555467 
L 110.484068 191.178293 
L 115.589579 199.392848 
L 120.695089 207.074624 
L 125.8006 214.072576 
L 130.906111 220.205591 
L 136.011622 225.25874 
L 141.117133 228.979303 
L 146.222644 231.07258 
L 151.328155 231.19748 
L 156.433665 228.961885 
L 161.539176 223.917798 
L 166.644687 215.55627 
L 171.750198 203.302103 
L 176.855709 186.508337 
L 181.96122 164.450514 
L 187.066731 136.320719 
L 192.172241 101.221406 
L 197.277752 58.158997 
L 202.383263 6.037268 
L 202.959168 -1 
M 6.941429 -1 
L 74.745492 126.661047 
L 90.062024 155.152313 
L 100.273046 173.625647 
L 105.378557 182.555467 
L 110.484068 191.178293 
L 115.589579 199.392848 
L 120.695089 207.074624 
L 125.8006 214.072576 
L 130.906111 220.205591 
L 136.011622 225.25874 
L 141.117133 228.979303 
L 146.222644 231.07258 
L 151.328155 231.19748 
L 156.433665 228.961885 
L 161.539176 223.917798 
L 166.644687 215.55627 
L 171.750198 203.302103 
L 176.855709 186.508337 
L 181.96122 164.450514 
L 187.066731 136.320719 
L 192.172241 101.221406 
L 197.277752 58.158997 
L 202.383263 6.037268 
L 202.959168 -1 
M 6.941429 -1 
L 74.745492 126.661047 
L 90.062024 155.152313 
L 100.273046 173.625647 
L 105.378557 182.555467 
L 110.484068 191.178293 
L 115.589579 199.392848 
L 120.695089 207.074624 
L 125.8006 214.072576 
L 130.906111 220.205591 
L 136.011622 225.25874 
L 141.117133 228.979303 
L 146.222644 231.07258 
L 151.328155 231.19748 
L 156.433665 228.961885 
L 161.539176 223.917798 
L 166.644687 215.55627 
L 171.750198 203.302103 
L 176.855709 186.508337 
L 181.96122 164.450514 
L 187.066731 136.320719 
L 192.172241 101.221406 
L 197.277752 58.158997 
L 202.383263 6.037268 
L 202.959168 -1 
M 6.941429 -1 
L 74.745492 126.661047 
L 90.062024 155.152313 
L 100.273046 173.625647 
L 105.378557 182.555467 
L 110.484068 191.178293 
L 115.589579 199.392848 
L 120.695089 207.074624 
L 125.8006 214.072576 
L 130.906111 220.205591 
L 136.011622 225.25874 
L 141.117133 228.979303 
L 146.222644 231.07258 
L 151.328155 231.19748 
L 156.433665 228.961885 
L 161.539176 223.917798 
L 166.644687 215.55627 
L 171.750198 203.302103 
L 176.855709 186.508337 
L 181.96122 164.450514 
L 187.066731 136.320719 
L 192.172241 101.221406 
L 197.277752 58.158997 
L 202.383263 6.037268 
L 202.959168 -1 
M 6.941429 -1 
L 74.745492 126.661047 
L 90.062024 155.152313 
L 100.273046 173.625647 
L 105.378557 182.555467 
L 110.484068 191.178293 
L 115.589579 199.392848 
L 120.695089 207.074624 
L 125.8006 214.072576 
L 130.906111 220.205591 
L 136.011622 225.25874 
L 141.117133 228.979303 
L 146.222644 231.07258 
L 151.328155 231.19748 
L 156.433665 228.961885 
L 161.539176 223.917798 
L 166.644687 215.55627 
L 171.750198 203.302103 
L 176.855709 186.508337 
L 181.96122 164.450514 
L 187.066731 136.320719 
L 192.172241 101.221406 
L 197.277752 58.158997 
L 202.383263 6.037268 
L 202.959168 -1 
M 6.941429 -1 
L 74.745492 126.661047 
L 90.062024 155.152313 
L 100.273046 173.625647 
L 105.378557 182.555467 
L 110.484068 191.178293 
L 115.589579 199.392848 
L 120.695089 207.074624 
L 125.8006 214.072576 
L 130.906111 220.205591 
L 136.011622 225.25874 
L 141.117133 228.979303 
L 146.222644 231.07258 
L 151.328155 231.19748 
L 156.433665 228.961885 
L 161.539176 223.917798 
L 166.644687 215.55627 
L 171.750198 203.302103 
L 176.855709 186.508337 
L 181.96122 164.450514 
L 187.066731 136.320719 
L 192.172241 101.221406 
L 197.277752 58.158997 
L 202.383263 6.037268 
L 202.959168 -1 
M 6.941429 -1 
L 74.745492 126.661047 
L 90.062024 155.152313 
L 100.273046 173.625647 
L 105.378557 182.555467 
L 110.484068 191.178293 
L 115.589579 199.392848 
L 120.695089 207.074624 
L 125.8006 214.072576 
L 130.906111 220.205591 
L 136.011622 225.25874 
L 141.117133 228.979303 
L 146.222644 231.07258 
L 151.328155 231.19748 
L 156.433665 228.961885 
L 161.539176 223.917798 
L 166.644687 215.55627 
L 171.750198 203.302103 
L 176.855709 186.508337 
L 181.96122 164.450514 
L 187.066731 136.320719 
L 192.172241 101.221406 
L 197.277752 58.158997 
L 202.383263 6.037268 
L 202.959168 -1 
M 6.941429 -1 
L 74.745492 126.661047 
L 90.062024 155.152313 
L 100.273046 173.625647 
L 105.378557 182.555467 
L 110.484068 191.178293 
L 115.589579 199.392848 
L 120.695089 207.074624 
L 125.8006 214.072576 
L 130.906111 220.205591 
L 136.011622 225.25874 
L 141.117133 228.979303 
L 146.222644 231.07258 
L 151.328155 231.19748 
L 156.433665 228.961885 
L 161.539176 223.917798 
L 166.644687 215.55627 
L 171.750198 203.302103 
L 176.855709 186.508337 
L 181.96122 164.450514 
L 187.066731 136.320719 
L 192.172241 101.221406 
L 197.277752 58.158997 
L 202.383263 6.037268 
L 202.959168 -1 
M 6.941429 -1 
L 74.745492 126.661047 
L 90.062024 155.152313 
L 100.273046 173.625647 
L 105.378557 182.555467 
L 110.484068 191.178293 
L 115.589579 199.392848 
L 120.695089 207.074624 
L 125.8006 214.072576 
L 130.906111 220.205591 
L 136.011622 225.25874 
L 141.117133 228.979303 
L 146.222644 231.07258 
L 151.328155 231.19748 
L 156.433665 228.961885 
L 161.539176 223.917798 
L 166.644687 215.55627 
L 171.750198 203.302103 
L 176.855709 186.508337 
L 181.96122 164.450514 
L 187.066731 136.320719 
L 192.172241 101.221406 
L 197.277752 58.158997 
L 202.383263 6.037268 
L 202.959168 -1 
M 6.941429 -1 
L 74.745492 126.661047 
L 90.062024 155.152313 
L 100.273046 173.625647 
L 105.378557 182.555467 
L 110.484068 191.178293 
L 115.589579 199.392848 
L 120.695089 207.074624 
L 125.8006 214.072576 
L 130.906111 220.205591 
L 136.011622 225.25874 
L 141.117133 228.979303 
L 146.222644 231.07258 
L 151.328155 231.19748 
L 156.433665 228.961885 
L 161.539176 223.917798 
L 166.644687 215.55627 
L 171.750198 203.302103 
L 176.855709 186.508337 
L 181.96122 164.450514 
L 187.066731 136.320719 
L 192.172241 101.221406 
L 197.277752 58.158997 
L 202.383263 6.037268 
L 202.959168 -1 
M 6.941429 -1 
L 74.745492 126.661047 
L 90.062024 155.152313 
L 100.273046 173.625647 
L 105.378557 182.555467 
L 110.484068 191.178293 
L 115.589579 199.392848 
L 120.695089 207.074624 
L 125.8006 214.072576 
L 130.906111 220.205591 
L 136.011622 225.25874 
L 141.117133 228.979303 
L 146.222644 231.07258 
L 151.328155 231.19748 
L 156.433665 228.961885 
L 161.539176 223.917798 
L 166.644687 215.55627 
L 171.750198 203.302103 
L 176.855709 186.508337 
L 181.96122 164.450514 
L 187.066731 136.320719 
L 192.172241 101.221406 
L 197.277752 58.158997 
L 202.383263 6.037268 
L 202.959168 -1 
M 6.941429 -1 
L 74.745492 126.661047 
L 90.062024 155.152313 
L 100.273046 173.625647 
L 105.378557 182.555467 
L 110.484068 191.178293 
L 115.589579 199.392848 
L 120.695089 207.074624 
L 125.8006 214.072576 
L 130.906111 220.205591 
L 136.011622 225.25874 
L 141.117133 228.979303 
L 146.222644 231.07258 
L 151.328155 231.19748 
L 156.433665 228.961885 
L 161.539176 223.917798 
L 166.644687 215.55627 
L 171.750198 203.302103 
L 176.855709 186.508337 
L 181.96122 164.450514 
L 187.066731 136.320719 
L 192.172241 101.221406 
L 197.277752 58.158997 
L 202.383263 6.037268 
L 202.959168 -1 
L 202.959168 -1 
" clip-path="url(#pbdb93f9b37)" style="fill: none; stroke-dasharray: 5.55,2.4; stroke-dashoffset: 0; stroke: #000000; stroke-width: 1.5"/>
   </g>
   <g id="patch_3">
    <path d="M 34.069647 231.19748 
L 34.069647 40.114286 
" style="fill: none; stroke: #000000; stroke-width: 0.8; stroke-linejoin: miter; stroke-linecap: square"/>
   </g>
   <g id="patch_4">
    <path d="M 216.246948 231.19748 
L 216.246948 40.114286 
" style="fill: none; stroke: #000000; stroke-width: 0.8; stroke-linejoin: miter; stroke-linecap: square"/>
   </g>
   <g id="patch_5">
    <path d="M 34.069647 231.19748 
L 216.246948 231.19748 
" style="fill: none; stroke: #000000; stroke-width: 0.8; stroke-linejoin: miter; stroke-linecap: square"/>
   </g>
   <g id="patch_6">
    <path d="M 34.069647 40.114286 
L 216.246948 40.114286 
" style="fill: none; stroke: #000000; stroke-width: 0.8; stroke-linejoin: miter; stroke-linecap: square"/>
   </g>
  </g>
 </g>
 <defs>
  <clipPath id="pbdb93f9b37">
   <rect x="34.069647" y="40.114286" width="182.177301" height="191.083195"/>
  </clipPath>
 </defs>
</svg>
